<?xml version="1.0" standalone="no"?>
<!DOCTYPE svg PUBLIC "-//W3C//DTD SVG 20010904//EN"
 "http://www.w3.org/TR/2001/REC-SVG-20010904/DTD/svg10.dtd">
<svg version="1.0" xmlns="http://www.w3.org/2000/svg"
 width="1420.000000pt" height="969.000000pt" viewBox="0 0 1420.000000 969.000000"
 preserveAspectRatio="xMidYMid meet">

<g transform="translate(0.000000,969.000000) scale(0.100000,-0.100000)"
fill="#000000" stroke="none">
<path d="M6110 9369 c0 -6 -18 -29 -40 -50 -32 -31 -40 -46 -40 -74 0 -24 5
-35 15 -35 8 0 15 -7 15 -15 0 -8 7 -15 15 -15 8 0 15 -4 15 -10 0 -5 8 -19
17 -30 17 -20 29 -20 540 -20 458 0 523 -2 523 -15 0 -8 7 -15 15 -15 8 0 15
-7 15 -15 0 -8 7 -15 15 -15 12 0 15 -14 15 -66 0 -63 -2 -69 -35 -100 l-34
-34 -1181 0 c-1042 0 -1180 -2 -1180 -15 0 -11 -12 -15 -45 -15 -33 0 -45 -4
-45 -15 0 -10 -10 -15 -30 -15 -20 0 -30 -5 -30 -15 0 -8 -7 -15 -15 -15 -8 0
-15 -7 -15 -15 0 -8 -7 -15 -15 -15 -8 0 -15 -7 -15 -15 0 -8 -7 -15 -15 -15
-8 0 -15 -7 -15 -15 0 -8 -7 -15 -15 -15 -10 0 -15 -10 -15 -30 0 -20 -5 -30
-15 -30 -11 0 -15 -12 -15 -45 0 -33 -4 -45 -15 -45 -12 0 -15 -14 -15 -70 0
-56 3 -70 15 -70 11 0 15 -13 15 -53 0 -46 4 -56 30 -77 16 -14 29 -33 30 -42
0 -19 34 -58 50 -58 6 0 10 -7 10 -15 0 -9 9 -15 25 -15 14 0 28 -7 31 -15 4
-9 19 -15 35 -15 19 0 29 -5 29 -15 0 -12 13 -15 55 -15 42 0 55 -3 55 -15 0
-13 140 -15 1200 -15 1060 0 1200 2 1200 15 0 13 96 15 804 15 705 0 805 2
810 15 3 8 17 15 31 15 24 0 25 2 25 70 0 56 -3 70 -15 70 -10 0 -15 10 -15
30 0 25 -4 30 -25 30 -14 0 -28 7 -31 15 -5 11 -23 15 -75 15 -55 0 -69 -3
-69 -15 0 -13 -222 -15 -1935 -15 -1713 0 -1935 2 -1935 15 0 10 -10 15 -30
15 -27 0 -30 3 -30 30 0 20 -5 30 -15 30 -12 0 -15 14 -15 66 0 55 4 70 23 90
12 13 32 24 43 24 12 0 24 7 28 15 5 13 147 15 1200 15 1052 0 1195 2 1200 15
3 8 17 15 31 15 14 0 25 5 25 10 0 6 14 10 30 10 20 0 30 5 30 15 0 8 7 15 15
15 8 0 15 7 15 15 0 8 7 15 15 15 8 0 15 7 15 15 0 8 7 15 15 15 10 0 15 10
15 30 0 20 5 30 15 30 10 0 15 10 15 30 0 20 5 30 15 30 13 0 15 21 15 130 0
109 -2 130 -15 130 -10 0 -15 10 -15 30 0 20 -5 30 -15 30 -10 0 -15 10 -15
30 0 20 -5 30 -15 30 -8 0 -15 7 -15 15 0 8 -7 15 -15 15 -8 0 -15 5 -15 10 0
6 -10 10 -23 10 -13 0 -33 13 -47 30 -14 16 -35 29 -48 30 -12 0 -25 7 -28 15
-5 13 -77 15 -560 15 -401 0 -554 -3 -554 -11z"/>
<path d="M6170 7755 c0 -10 -10 -15 -30 -15 -16 0 -30 -5 -30 -11 0 -6 -27
-37 -59 -70 -33 -32 -64 -59 -70 -59 -6 0 -11 -13 -11 -30 0 -20 -5 -30 -15
-30 -13 0 -15 -23 -15 -145 0 -122 2 -145 15 -145 10 0 15 -10 15 -30 0 -20 5
-30 15 -30 10 0 15 -10 15 -30 0 -20 5 -30 15 -30 8 0 15 -7 15 -15 0 -8 7
-15 15 -15 8 0 15 -7 15 -15 0 -8 7 -15 15 -15 8 0 15 -7 15 -15 0 -9 9 -15
24 -15 13 0 26 -7 30 -15 3 -10 19 -15 46 -15 29 0 40 -4 40 -15 0 -13 224
-15 1960 -15 1736 0 1960 2 1960 15 0 11 12 15 45 15 33 0 45 4 45 15 0 10 10
15 30 15 20 0 30 5 30 15 0 10 10 15 30 15 20 0 30 5 30 15 0 8 7 15 15 15 8
0 15 7 15 15 0 8 7 15 15 15 10 0 15 10 15 30 0 20 5 30 15 30 8 0 15 7 15 15
0 8 7 15 15 15 11 0 15 12 15 45 0 25 5 45 10 45 6 0 10 40 10 100 0 60 -4
100 -10 100 -5 0 -10 11 -10 25 0 14 -7 28 -15 31 -8 4 -15 17 -15 30 0 15 -6
24 -15 24 -8 0 -15 7 -15 15 0 8 -7 15 -15 15 -8 0 -15 7 -15 15 0 8 -7 15
-15 15 -8 0 -15 7 -15 15 0 8 -7 15 -15 15 -8 0 -15 7 -15 15 0 10 -10 15 -30
15 -20 0 -30 5 -30 15 0 13 -234 15 -2050 15 -1816 0 -2050 -2 -2050 -15z
m3960 -230 c0 -11 12 -15 45 -15 33 0 45 -4 45 -15 0 -8 7 -15 15 -15 12 0 15
-16 15 -81 0 -70 -3 -84 -22 -105 -13 -13 -33 -24 -44 -24 -12 0 -24 -7 -28
-15 -5 -13 -231 -15 -1951 -15 -1722 0 -1945 2 -1945 15 0 8 -7 15 -15 15 -8
0 -15 7 -15 15 0 8 -7 15 -15 15 -8 0 -15 7 -15 15 0 8 -7 15 -15 15 -12 0
-15 13 -15 60 0 47 3 60 15 60 8 0 15 7 15 15 0 8 7 15 15 15 8 0 15 7 15 15
0 13 153 15 1315 15 1162 0 1315 2 1315 15 0 13 77 15 635 15 558 0 635 -2
635 -15z"/>
<path d="M4770 6705 c0 -10 -10 -15 -30 -15 -20 0 -30 -5 -30 -15 0 -10 -10
-15 -30 -15 -20 0 -30 -5 -30 -15 0 -8 -7 -15 -15 -15 -8 0 -15 -7 -15 -15 0
-8 -7 -15 -15 -15 -8 0 -15 -7 -15 -15 0 -8 -7 -15 -15 -15 -8 0 -15 -7 -15
-15 0 -8 -7 -15 -15 -15 -10 0 -15 -10 -15 -30 0 -20 -5 -30 -15 -30 -13 0
-15 -24 -15 -155 0 -129 3 -157 15 -161 8 -4 15 -17 15 -30 0 -15 6 -24 15
-24 8 0 15 -7 15 -15 0 -8 7 -15 15 -15 8 0 15 -7 15 -15 0 -8 7 -15 15 -15 8
0 15 -7 15 -15 0 -8 7 -15 15 -15 8 0 15 -7 15 -15 0 -8 7 -15 15 -15 8 0 15
-7 15 -15 0 -10 10 -15 30 -15 20 0 30 -5 30 -15 0 -13 229 -15 2005 -15 1776
0 2005 2 2005 15 0 10 10 15 30 15 20 0 30 5 30 15 0 8 9 15 20 15 25 0 120
95 120 120 0 11 7 20 15 20 10 0 15 10 15 30 0 20 5 30 15 30 13 0 15 21 15
130 0 109 -2 130 -15 130 -10 0 -15 10 -15 30 0 20 -5 30 -15 30 -10 0 -15 10
-15 30 0 20 -5 30 -15 30 -8 0 -15 7 -15 15 0 8 -7 15 -15 15 -8 0 -15 7 -15
15 0 8 -7 15 -15 15 -8 0 -15 7 -15 15 0 9 -9 15 -25 15 -16 0 -25 6 -25 15 0
10 -10 15 -30 15 -20 0 -30 5 -30 15 0 13 -228 15 -1990 15 -1762 0 -1990 -2
-1990 -15z m3920 -260 c0 -8 7 -15 15 -15 8 0 15 -7 15 -15 0 -8 7 -15 15 -15
10 0 15 -10 15 -30 0 -20 5 -30 15 -30 8 0 15 -7 15 -15 0 -8 -7 -15 -15 -15
-10 0 -15 -10 -15 -30 0 -20 -5 -30 -15 -30 -8 0 -15 -7 -15 -15 0 -8 -7 -15
-15 -15 -8 0 -15 -7 -15 -15 0 -13 -223 -15 -1950 -15 -1727 0 -1950 2 -1950
15 0 8 -7 15 -15 15 -8 0 -15 7 -15 15 0 8 -7 15 -15 15 -12 0 -15 15 -15 75
0 60 3 75 15 75 8 0 15 7 15 15 0 8 7 15 15 15 8 0 15 7 15 15 0 13 223 15
1950 15 1727 0 1950 -2 1950 -15z"/>
<path d="M9336 5645 c-5 -13 -190 -15 -1586 -15 -1398 0 -1580 -2 -1580 -15 0
-10 -10 -15 -30 -15 -16 0 -30 -5 -30 -11 0 -14 -55 -69 -69 -69 -6 0 -11 -7
-11 -15 0 -8 -7 -15 -15 -15 -10 0 -15 -10 -15 -30 0 -20 -5 -30 -15 -30 -11
0 -15 -12 -15 -45 0 -33 -4 -45 -15 -45 -12 0 -15 -16 -15 -85 0 -69 3 -85 15
-85 11 0 15 -12 15 -45 0 -33 4 -45 15 -45 8 0 15 -7 15 -15 0 -8 7 -15 15
-15 10 0 15 -10 15 -30 0 -20 5 -30 15 -30 8 0 15 -7 15 -15 0 -8 7 -15 15
-15 8 0 15 -7 15 -15 0 -9 9 -15 24 -15 13 0 26 -7 30 -15 3 -8 17 -15 31 -15
14 0 25 -4 25 -10 0 -5 18 -10 40 -10 27 0 43 -5 46 -15 5 -13 171 -15 1410
-15 1241 0 1404 2 1404 15 0 13 70 15 570 15 373 0 570 3 570 10 0 6 14 10 30
10 20 0 30 5 30 15 0 10 10 15 30 15 20 0 30 5 30 15 0 8 7 15 15 15 8 0 15 7
15 15 0 8 7 15 15 15 10 0 15 10 15 30 0 20 5 30 15 30 8 0 15 7 15 15 0 8 7
15 15 15 12 0 15 13 15 60 0 33 4 60 10 60 6 0 10 25 10 55 0 30 -4 55 -10 55
-5 0 -10 20 -10 45 0 33 -4 45 -15 45 -10 0 -15 10 -15 30 0 20 -5 30 -15 30
-9 0 -15 9 -15 23 0 22 -31 57 -50 57 -6 0 -10 7 -10 15 0 10 -10 15 -30 15
-20 0 -30 5 -30 15 0 10 -10 15 -30 15 -20 0 -30 5 -30 15 0 12 -13 15 -55 15
-40 0 -57 4 -61 15 -5 13 -58 15 -394 15 -336 0 -389 -2 -394 -15z m824 -260
c0 -10 10 -15 30 -15 20 0 30 -5 30 -15 0 -8 7 -15 15 -15 12 0 15 -16 15 -82
0 -74 -3 -85 -24 -105 -13 -13 -33 -23 -45 -23 -12 0 -21 -4 -21 -10 0 -7
-647 -10 -1920 -10 -1273 0 -1920 3 -1920 10 0 6 -13 10 -30 10 -20 0 -30 5
-30 15 0 10 -10 15 -30 15 l-30 0 0 90 c0 73 3 90 15 90 8 0 15 7 15 15 0 10
10 15 30 15 20 0 30 5 30 15 0 13 222 15 1935 15 1713 0 1935 -2 1935 -15z"/>
<path d="M4770 4565 c0 -11 -12 -15 -45 -15 -33 0 -45 -4 -45 -15 0 -8 -7 -15
-15 -15 -8 0 -15 -7 -15 -15 0 -10 -10 -15 -30 -15 -27 0 -30 -3 -30 -30 0
-20 -5 -30 -15 -30 -8 0 -15 -7 -15 -15 0 -8 -7 -15 -15 -15 -10 0 -15 -10
-15 -30 0 -20 -5 -30 -15 -30 -11 0 -15 -11 -15 -39 0 -25 -5 -41 -15 -45 -11
-4 -15 -21 -15 -61 0 -42 3 -55 15 -55 11 0 15 -11 15 -40 0 -27 5 -43 15 -46
8 -4 15 -17 15 -30 0 -15 6 -24 15 -24 10 0 15 -10 15 -30 0 -20 5 -30 15 -30
8 0 15 -7 15 -15 0 -8 7 -15 15 -15 8 0 15 -7 15 -15 0 -8 7 -15 15 -15 8 0
15 -7 15 -15 0 -10 10 -15 30 -15 20 0 30 -5 30 -15 0 -10 10 -15 30 -15 20 0
30 -5 30 -15 0 -13 226 -15 1975 -15 1749 0 1975 2 1975 15 0 11 12 15 45 15
25 0 45 4 45 10 0 17 34 50 52 50 23 0 58 35 58 58 0 10 13 29 30 42 22 19 29
33 30 63 0 26 4 37 15 37 12 0 15 19 15 114 0 92 -3 115 -15 120 -8 3 -15 16
-15 30 0 13 -7 26 -15 30 -8 3 -15 17 -15 31 0 16 -6 25 -15 25 -8 0 -15 7
-15 15 0 8 -7 15 -15 15 -8 0 -15 5 -15 10 0 17 -39 50 -60 50 -11 0 -20 7
-20 15 0 10 -10 15 -30 15 -20 0 -30 5 -30 15 0 13 -228 15 -1990 15 -1762 0
-1990 -2 -1990 -15z m3950 -260 c0 -8 7 -15 15 -15 12 0 15 -17 15 -90 0 -73
-3 -90 -15 -90 -8 0 -15 -7 -15 -15 0 -8 -7 -15 -15 -15 -8 0 -15 -7 -15 -15
0 -13 -223 -15 -1950 -15 -1727 0 -1950 2 -1950 15 0 8 -7 15 -15 15 -8 0 -15
7 -15 15 0 8 -7 15 -15 15 -12 0 -15 15 -15 75 0 60 3 75 15 75 8 0 15 7 15
15 0 8 7 15 15 15 8 0 15 7 15 15 0 13 225 15 1965 15 1740 0 1965 -2 1965
-15z"/>
<path d="M6170 3505 c0 -10 -10 -15 -30 -15 -20 0 -30 -5 -30 -15 0 -9 -9 -15
-25 -15 -14 0 -25 -4 -25 -10 0 -5 -7 -10 -15 -10 -8 0 -15 -7 -15 -15 0 -8
-7 -15 -15 -15 -10 0 -15 -10 -15 -30 0 -20 -5 -30 -15 -30 -10 0 -15 -10 -15
-30 0 -20 -5 -30 -15 -30 -13 0 -15 -23 -15 -145 0 -122 2 -145 15 -145 10 0
15 -10 15 -30 0 -20 5 -30 15 -30 8 0 15 -7 15 -15 0 -8 7 -15 15 -15 10 0 15
-10 15 -30 0 -27 3 -30 30 -30 17 0 30 -5 30 -11 0 -19 28 -39 54 -39 16 0 26
-6 26 -15 0 -12 13 -15 60 -15 47 0 60 -3 60 -15 0 -13 54 -15 425 -15 371 0
425 2 425 15 0 11 13 15 54 15 39 0 55 4 60 15 3 8 17 15 31 15 14 0 25 5 25
10 0 6 7 10 15 10 8 0 15 7 15 15 0 8 7 15 15 15 8 0 15 7 15 15 0 8 7 15 15
15 8 0 15 7 15 15 0 8 7 15 15 15 8 0 15 7 15 15 0 8 7 15 15 15 10 0 15 10
15 30 0 20 5 30 15 30 13 0 15 23 15 145 0 122 -2 145 -15 145 -10 0 -15 10
-15 30 0 20 -5 30 -15 30 -8 0 -15 7 -15 15 0 8 -7 15 -15 15 -8 0 -15 7 -15
15 0 8 -7 15 -15 15 -8 0 -15 7 -15 15 0 8 -5 15 -11 15 -7 0 -22 11 -35 25
-13 14 -32 25 -44 25 -11 0 -23 7 -26 15 -5 13 -75 15 -545 15 -472 0 -539 -2
-539 -15z m1030 -260 c0 -8 7 -15 15 -15 12 0 15 -16 15 -83 0 -70 -3 -85 -20
-100 -11 -9 -25 -17 -30 -17 -6 0 -10 -7 -10 -15 0 -13 -55 -15 -439 -15 -381
0 -440 2 -445 15 -3 8 -17 15 -31 15 -14 0 -25 5 -25 10 0 6 -7 10 -15 10 -8
0 -15 7 -15 15 0 8 -7 15 -15 15 -25 0 -21 111 5 133 11 9 25 17 30 17 6 0 10
7 10 15 0 13 61 15 485 15 424 0 485 -2 485 -15z"/>
<path d="M4710 1725 c0 -12 -13 -15 -60 -15 -47 0 -60 -3 -60 -15 0 -11 -12
-15 -45 -15 -33 0 -45 -4 -45 -15 0 -10 -10 -15 -30 -15 -16 0 -30 -4 -30 -10
0 -19 -35 -50 -57 -50 -14 0 -23 -6 -23 -15 0 -8 -7 -15 -15 -15 -8 0 -15 -7
-15 -15 0 -8 -7 -15 -15 -15 -10 0 -15 -10 -15 -30 0 -20 -5 -30 -15 -30 -8 0
-15 -7 -15 -15 0 -8 -7 -15 -15 -15 -9 0 -15 -9 -15 -25 0 -14 -7 -28 -15 -31
-10 -4 -15 -20 -15 -45 0 -28 -4 -39 -15 -39 -11 0 -15 -12 -15 -45 0 -33 -4
-45 -15 -45 -13 0 -15 -34 -15 -244 0 -208 2 -245 15 -250 10 -3 15 -19 15
-46 0 -29 4 -40 15 -40 11 0 15 -12 15 -45 0 -33 4 -45 15 -45 8 0 15 -7 15
-15 0 -8 7 -15 15 -15 10 0 15 -10 15 -30 0 -20 5 -30 15 -30 8 0 15 -7 15
-15 0 -8 7 -15 15 -15 8 0 15 -7 15 -15 0 -8 7 -15 15 -15 8 0 15 -7 15 -15 0
-8 7 -15 15 -15 8 0 15 -7 15 -15 0 -8 7 -15 15 -15 8 0 15 -7 15 -15 0 -9 9
-15 25 -15 14 0 25 -4 25 -10 0 -5 14 -10 30 -10 20 0 30 -5 30 -15 0 -12 13
-15 60 -15 47 0 60 -3 60 -15 0 -13 28 -15 190 -15 162 0 190 2 190 15 0 11
11 15 39 15 25 0 41 5 45 15 3 10 19 15 46 15 22 0 40 5 40 10 0 6 14 10 30
10 20 0 30 5 30 15 0 8 7 15 15 15 8 0 15 7 15 15 0 10 10 15 30 15 20 0 30 5
30 15 0 8 7 15 15 15 8 0 15 7 15 15 0 8 7 15 15 15 10 0 15 10 15 30 0 20 5
30 15 30 8 0 15 7 15 15 0 8 7 15 15 15 10 0 15 10 15 30 0 20 5 30 15 30 11
0 15 12 15 45 0 25 5 45 10 45 6 0 10 18 10 40 0 29 4 40 15 40 13 0 15 33 15
235 0 202 -2 235 -15 235 -12 0 -15 13 -15 60 0 33 -4 60 -10 60 -5 0 -10 11
-10 25 0 16 -6 25 -15 25 -10 0 -15 10 -15 30 0 20 -5 30 -15 30 -8 0 -15 7
-15 15 0 8 -7 15 -15 15 -10 0 -15 10 -15 30 0 20 -5 30 -15 30 -8 0 -15 7
-15 15 0 10 -10 15 -30 15 -20 0 -30 5 -30 15 0 8 -7 15 -15 15 -8 0 -15 7
-15 15 0 8 -7 15 -15 15 -8 0 -15 7 -15 15 0 10 -10 15 -30 15 -20 0 -30 5
-30 15 0 11 -12 15 -45 15 -33 0 -45 4 -45 15 0 12 -13 15 -55 15 -42 0 -55 3
-55 15 0 13 -23 15 -145 15 -122 0 -145 -2 -145 -15z m170 -290 c0 -12 13 -15
60 -15 47 0 60 -3 60 -15 0 -10 10 -15 30 -15 20 0 30 -5 30 -15 0 -8 7 -15
15 -15 8 0 15 -7 15 -15 0 -8 7 -15 15 -15 8 0 15 -7 15 -15 0 -8 7 -15 15
-15 10 0 15 -10 15 -30 0 -20 5 -30 15 -30 11 0 15 -12 15 -45 0 -33 4 -45 15
-45 13 0 15 -26 15 -175 0 -149 -2 -175 -15 -175 -11 0 -15 -12 -15 -45 0 -33
-4 -45 -15 -45 -10 0 -15 -10 -15 -30 0 -20 -5 -30 -15 -30 -8 0 -15 -7 -15
-15 0 -8 -7 -15 -15 -15 -8 0 -15 -7 -15 -15 0 -8 -5 -15 -10 -15 -6 0 -21
-11 -34 -25 -19 -20 -33 -25 -75 -25 -37 0 -53 -4 -57 -15 -9 -22 -124 -22
-124 0 0 11 -12 15 -45 15 -25 0 -45 5 -45 10 0 6 -11 10 -25 10 -16 0 -25 6
-25 15 0 8 -7 15 -15 15 -8 0 -15 7 -15 15 0 8 -7 15 -15 15 -8 0 -15 7 -15
15 0 8 -7 15 -15 15 -10 0 -15 10 -15 30 0 20 -5 30 -15 30 -11 0 -15 12 -15
45 0 33 -4 45 -15 45 -13 0 -15 28 -15 190 0 162 2 190 15 190 11 0 15 12 15
45 0 33 4 45 15 45 8 0 15 7 15 15 0 8 7 15 15 15 10 0 15 10 15 30 0 27 3 30
30 30 17 0 30 4 30 10 0 5 8 19 17 30 13 15 30 20 70 20 40 0 53 4 53 15 0 11
12 15 45 15 33 0 45 -4 45 -15z"/>
<path d="M1020 1695 c0 -10 -10 -15 -30 -15 -27 0 -30 -3 -30 -30 0 -20 -5
-30 -15 -30 -8 0 -15 -7 -15 -15 0 -8 7 -15 15 -15 13 0 15 -81 15 -670 l0
-670 40 0 c27 0 43 -5 46 -15 9 -21 114 -21 114 0 0 12 13 15 60 15 l60 0 0
290 0 290 275 0 c238 0 275 2 275 15 0 8 7 15 15 15 12 0 15 19 15 115 0 96
-3 115 -15 115 -8 0 -15 7 -15 15 0 13 -37 15 -275 15 l-275 0 0 150 0 150
350 0 350 0 0 55 c0 40 4 57 15 61 8 4 15 10 15 15 0 5 -7 9 -15 9 -8 0 -15 7
-15 15 0 8 7 15 15 15 8 0 15 7 15 15 0 8 -7 15 -15 15 -10 0 -15 10 -15 30 0
20 -5 30 -15 30 -8 0 -15 7 -15 15 0 13 -58 15 -465 15 -407 0 -465 -2 -465
-15z"/>
<path d="M2510 1695 c0 -8 -7 -15 -15 -15 -8 0 -15 -7 -15 -15 0 -8 -7 -15
-15 -15 -13 0 -15 -83 -15 -685 0 -602 2 -685 15 -685 8 0 15 -7 15 -15 0 -11
12 -15 45 -15 33 0 45 -4 45 -15 0 -19 16 -19 24 0 4 12 24 15 86 15 126 0
120 -16 120 310 l0 270 90 0 c73 0 90 -3 90 -15 0 -8 7 -15 15 -15 8 0 15 -7
15 -15 0 -8 7 -15 15 -15 8 0 15 -7 15 -15 0 -8 5 -15 10 -15 18 0 80 -66 80
-84 0 -9 11 -27 25 -40 14 -14 25 -34 25 -50 0 -16 5 -26 15 -26 8 0 15 -7 15
-15 0 -8 7 -15 15 -15 10 0 15 -10 15 -30 0 -20 5 -30 15 -30 8 0 15 -7 15
-15 0 -8 7 -15 15 -15 10 0 15 -10 15 -30 0 -20 5 -30 15 -30 8 0 15 -7 15
-15 0 -8 7 -15 15 -15 8 0 15 -7 15 -15 0 -8 7 -15 15 -15 9 0 15 -9 15 -25 0
-20 5 -25 25 -25 14 0 28 -7 31 -15 5 -12 30 -15 135 -15 108 0 129 2 129 15
0 10 10 15 30 15 30 0 30 1 30 55 0 42 -3 55 -15 55 -8 0 -15 7 -15 15 0 8 -7
15 -15 15 -10 0 -15 10 -15 30 0 20 -5 30 -15 30 -10 0 -15 10 -15 30 0 20 -5
30 -15 30 -8 0 -15 7 -15 15 0 8 -4 15 -10 15 -19 0 -50 35 -50 57 0 14 -6 23
-15 23 -8 0 -15 7 -15 15 0 8 -7 15 -15 15 -10 0 -15 10 -15 30 0 20 -5 30
-15 30 -8 0 -15 7 -15 15 0 8 -7 15 -15 15 -8 0 -15 7 -15 15 0 8 -7 15 -15
15 -8 0 -15 5 -15 10 0 6 -11 21 -25 34 -14 13 -25 28 -25 35 0 6 -7 11 -15
11 -8 0 -15 7 -15 15 0 11 11 15 39 15 25 0 41 5 45 15 3 8 17 15 31 15 16 0
25 6 25 15 0 8 7 15 15 15 8 0 15 7 15 15 0 10 10 15 30 15 27 0 30 3 30 30 0
20 5 30 15 30 8 0 15 7 15 15 0 8 7 15 15 15 9 0 15 9 15 25 0 14 7 28 15 31
12 5 15 32 15 160 0 130 -2 154 -15 154 -10 0 -15 10 -15 30 0 20 -5 30 -15
30 -8 0 -15 7 -15 15 0 8 -7 15 -15 15 -8 0 -15 7 -15 15 0 8 -7 15 -15 15 -8
0 -15 7 -15 15 0 8 -7 15 -15 15 -8 0 -15 7 -15 15 0 8 -7 15 -15 15 -8 0 -15
7 -15 15 0 10 -10 15 -30 15 -20 0 -30 5 -30 15 0 12 -13 15 -55 15 -42 0 -55
3 -55 15 0 13 -52 15 -410 15 -358 0 -410 -2 -410 -15z m730 -290 c0 -8 7 -15
15 -15 8 0 15 -7 15 -15 0 -8 7 -15 15 -15 8 0 15 -7 15 -15 0 -8 7 -15 15
-15 12 0 15 -15 15 -75 0 -60 -3 -75 -15 -75 -8 0 -15 -7 -15 -15 0 -8 -7 -15
-15 -15 -8 0 -15 -7 -15 -15 0 -10 -10 -15 -30 -15 -20 0 -30 -5 -30 -15 0
-13 -29 -15 -205 -15 l-205 0 0 165 0 165 220 0 c189 0 220 -2 220 -15z"/>
<path d="M6090 1695 c0 -8 -7 -15 -15 -15 -13 0 -15 -84 -15 -695 l0 -696 25
-23 c14 -13 25 -28 25 -35 0 -7 33 -11 105 -11 87 0 105 3 105 15 0 11 11 15
40 15 l40 0 0 389 c0 257 4 392 10 396 14 9 60 -36 60 -58 0 -10 11 -28 25
-41 14 -14 25 -34 25 -50 0 -16 5 -26 15 -26 8 0 15 -7 15 -15 0 -8 7 -15 15
-15 10 0 15 -10 15 -30 0 -20 5 -30 15 -30 8 0 15 -9 15 -20 0 -21 33 -60 50
-60 6 0 10 -13 10 -30 0 -20 5 -30 15 -30 8 0 15 -7 15 -15 0 -8 7 -15 15 -15
10 0 15 -10 15 -30 0 -20 5 -30 15 -30 10 0 15 -10 15 -30 0 -20 5 -30 15 -30
8 0 15 -7 15 -15 0 -8 7 -15 15 -15 10 0 15 -10 15 -30 0 -20 5 -30 15 -30 8
0 15 -7 15 -15 0 -8 7 -15 15 -15 10 0 15 -10 15 -30 0 -16 5 -30 11 -30 14 0
39 -25 39 -39 0 -7 57 -11 175 -11 l175 0 0 715 0 715 -30 0 c-20 0 -30 5 -30
15 0 12 -19 15 -115 15 -96 0 -115 -3 -115 -15 0 -8 -7 -15 -15 -15 -13 0 -15
-52 -15 -410 0 -358 -2 -410 -15 -410 -8 0 -15 7 -15 15 0 8 -7 15 -15 15 -10
0 -15 10 -15 30 0 17 -4 30 -10 30 -19 0 -50 35 -50 56 0 12 -7 24 -15 28 -8
3 -15 16 -15 28 -1 13 -14 34 -30 48 -17 14 -30 34 -30 47 0 13 -4 23 -10 23
-5 0 -10 7 -10 15 0 8 -7 15 -15 15 -10 0 -15 10 -15 30 0 20 -5 30 -15 30
-10 0 -15 10 -15 30 0 20 -5 30 -15 30 -8 0 -15 7 -15 15 0 8 -7 15 -15 15 -9
0 -15 9 -15 25 0 16 -6 25 -15 25 -8 0 -15 7 -15 15 0 8 -7 15 -15 15 -10 0
-15 10 -15 30 0 20 -5 30 -15 30 -10 0 -15 10 -15 30 0 20 -5 30 -15 30 -8 0
-15 7 -15 15 0 8 -7 15 -15 15 -10 0 -15 10 -15 30 0 20 -5 30 -15 30 -8 0
-15 7 -15 15 0 8 -7 15 -15 15 -8 0 -15 7 -15 15 0 13 -24 15 -155 15 -131 0
-155 -2 -155 -15z"/>
<path d="M7777 1690 c-9 -11 -17 -29 -17 -40 0 -12 -7 -23 -15 -26 -10 -4 -15
-20 -15 -44 0 -24 5 -40 15 -44 11 -4 15 -21 15 -61 0 -52 1 -55 25 -55 15 0
25 -6 25 -15 0 -12 29 -15 178 -17 l177 -3 3 -552 c1 -357 6 -553 12 -553 6 0
10 -7 10 -15 0 -13 22 -15 140 -15 127 0 142 2 160 20 20 20 20 33 20 570 l0
550 185 0 184 0 36 35 35 36 0 94 c0 78 -3 95 -15 95 -10 0 -15 10 -15 30 l0
30 -563 0 c-551 0 -563 0 -580 -20z"/>
<path d="M9417 1690 c-9 -11 -17 -25 -17 -30 0 -6 -7 -10 -15 -10 -13 0 -15
-82 -15 -675 0 -473 3 -675 11 -675 14 0 39 -25 39 -39 0 -8 160 -11 530 -11
464 0 530 2 530 15 0 8 5 15 10 15 6 0 10 40 10 100 0 55 -4 100 -9 100 -5 0
-11 12 -13 28 l-3 27 -382 3 -383 2 0 160 0 160 340 0 340 0 0 130 0 130 -30
0 c-20 0 -30 5 -30 15 0 13 -41 15 -310 15 l-311 0 3 133 3 132 383 3 382 2 0
130 c0 109 -2 130 -15 130 -8 0 -15 7 -15 15 0 13 -63 15 -508 15 -496 0 -508
0 -525 -20z"/>
<path d="M11070 1695 c0 -8 -7 -15 -15 -15 -8 0 -15 -7 -15 -15 0 -8 -7 -15
-15 -15 -13 0 -15 -82 -15 -675 0 -593 2 -675 15 -675 9 0 15 -9 15 -25 0 -20
5 -25 25 -25 16 0 25 -6 25 -15 0 -12 15 -15 75 -15 60 0 75 3 75 15 0 11 12
15 45 15 41 0 45 2 45 25 0 14 4 25 10 25 6 0 11 134 12 367 3 341 4 368 21
371 13 3 17 -3 17 -27 0 -21 5 -31 15 -31 8 0 15 -7 15 -15 0 -8 7 -15 15 -15
10 0 15 -10 15 -30 0 -20 5 -30 15 -30 8 0 15 -6 15 -14 0 -8 7 -16 15 -20 8
-3 15 -15 15 -27 0 -12 11 -32 25 -45 14 -13 25 -32 25 -44 0 -11 7 -20 15
-20 10 0 15 -10 15 -30 0 -20 5 -30 15 -30 8 0 15 -7 15 -15 0 -8 7 -15 15
-15 10 0 15 -10 15 -30 0 -20 5 -30 15 -30 10 0 15 -10 15 -30 0 -20 5 -30 15
-30 8 0 15 -7 15 -15 0 -8 7 -15 15 -15 10 0 15 -10 15 -30 0 -20 5 -30 15
-30 10 0 15 -10 15 -30 0 -20 5 -30 15 -30 8 0 15 -7 15 -15 0 -8 7 -15 15
-15 8 0 15 -7 15 -15 0 -8 5 -15 11 -15 7 0 22 -11 35 -25 23 -24 26 -25 169
-25 132 0 147 2 165 20 20 20 20 33 20 700 0 598 -2 680 -15 680 -8 0 -15 7
-15 15 0 8 -7 15 -15 15 -8 0 -15 7 -15 15 0 12 -19 15 -108 15 -95 0 -110 -2
-125 -20 -9 -11 -17 -25 -17 -30 0 -6 -7 -10 -15 -10 -13 0 -15 -49 -15 -380
0 -373 0 -380 -20 -380 -16 0 -20 7 -20 30 0 17 -4 30 -10 30 -18 0 -50 34
-50 53 0 10 -11 28 -25 41 -14 14 -25 34 -25 50 0 16 -5 26 -15 26 -8 0 -15 7
-15 15 0 8 -7 15 -15 15 -10 0 -15 10 -15 30 0 20 -5 30 -15 30 -10 0 -15 10
-15 30 0 20 -5 30 -15 30 -8 0 -15 7 -15 15 0 8 -7 15 -15 15 -10 0 -15 10
-15 30 0 17 -4 30 -10 30 -19 0 -50 35 -50 57 0 14 -6 23 -15 23 -10 0 -15 10
-15 30 0 20 -5 30 -15 30 -8 0 -15 7 -15 15 0 8 -7 15 -15 15 -10 0 -15 10
-15 30 0 20 -5 30 -15 30 -8 0 -15 7 -15 15 0 8 -7 15 -15 15 -10 0 -15 10
-15 30 0 20 -5 30 -15 30 -8 0 -15 7 -15 15 0 13 -22 15 -140 15 -118 0 -140
-2 -140 -15z"/>
<path d="M12850 1695 c0 -8 -7 -15 -15 -15 -11 0 -15 -12 -15 -45 0 -33 -4
-45 -15 -45 -13 0 -15 -63 -15 -510 0 -447 2 -510 15 -510 13 0 15 -24 15
-160 l0 -160 394 0 c341 0 395 2 400 15 3 10 19 15 46 15 22 0 40 5 40 10 0 6
10 10 23 10 13 0 33 13 47 30 14 16 35 29 48 30 13 0 22 6 22 15 0 8 7 15 15
15 10 0 15 10 15 30 0 20 5 30 15 30 8 0 15 7 15 15 0 8 7 15 15 15 10 0 15
10 15 30 0 20 5 30 15 30 11 0 15 12 15 45 0 33 4 45 15 45 11 0 15 11 15 40
0 27 5 43 15 46 13 5 15 44 15 265 0 224 -2 259 -15 259 -12 0 -15 13 -15 60
0 47 -3 60 -15 60 -9 0 -15 9 -15 24 0 13 -7 26 -15 30 -8 3 -15 14 -15 25 0
12 -25 45 -55 75 -30 29 -55 59 -55 65 0 6 -7 11 -15 11 -8 0 -15 7 -15 15 0
8 -7 15 -15 15 -8 0 -15 7 -15 15 0 11 -12 15 -45 15 -33 0 -45 4 -45 15 0 11
-12 15 -45 15 -33 0 -45 4 -45 15 0 13 -47 15 -365 15 -318 0 -365 -2 -365
-15z m590 -290 c0 -11 12 -15 45 -15 33 0 45 -4 45 -15 0 -9 9 -15 23 -15 28
0 57 -33 57 -65 0 -16 6 -25 15 -25 11 0 15 -11 15 -40 0 -27 5 -43 15 -46 13
-5 15 -36 15 -195 0 -161 -2 -189 -15 -189 -12 0 -15 -13 -15 -60 0 -47 -3
-60 -15 -60 -9 0 -15 -9 -15 -25 0 -32 -59 -95 -89 -95 -11 0 -21 -4 -21 -10
0 -6 -67 -10 -180 -10 l-180 0 0 425 c0 371 2 425 15 425 8 0 15 7 15 15 0 13
22 15 135 15 113 0 135 -2 135 -15z"/>
</g>
</svg>
