<?xml version="1.0" encoding="UTF-8"?>
<svg xmlns="http://www.w3.org/2000/svg" xmlns:xlink="http://www.w3.org/1999/xlink" width="88px" height="60px" viewBox="0 0 87 60" version="1.1">
<g id="surface1">
<path style=" stroke:none;fill-rule:nonzero;fill:rgb(0%,0%,0%);fill-opacity:1;" d="M 37.441406 1.988281 C 37.441406 2.023438 37.332031 2.167969 37.195312 2.296875 C 37 2.488281 36.949219 2.582031 36.949219 2.753906 C 36.949219 2.902344 36.980469 2.972656 37.042969 2.972656 C 37.09375 2.972656 37.132812 3.015625 37.132812 3.066406 C 37.132812 3.113281 37.175781 3.15625 37.226562 3.15625 C 37.277344 3.15625 37.320312 3.183594 37.320312 3.21875 C 37.320312 3.25 37.367188 3.335938 37.421875 3.40625 C 37.527344 3.53125 37.601562 3.53125 40.730469 3.53125 C 43.539062 3.53125 43.9375 3.542969 43.9375 3.621094 C 43.9375 3.671875 43.980469 3.714844 44.027344 3.714844 C 44.078125 3.714844 44.121094 3.757812 44.121094 3.808594 C 44.121094 3.859375 44.164062 3.902344 44.210938 3.902344 C 44.285156 3.902344 44.304688 3.988281 44.304688 4.308594 C 44.304688 4.699219 44.292969 4.738281 44.089844 4.929688 L 43.882812 5.140625 L 36.644531 5.140625 C 30.257812 5.140625 29.414062 5.152344 29.414062 5.230469 C 29.414062 5.300781 29.339844 5.324219 29.136719 5.324219 C 28.9375 5.324219 28.863281 5.351562 28.863281 5.417969 C 28.863281 5.480469 28.800781 5.511719 28.679688 5.511719 C 28.554688 5.511719 28.496094 5.542969 28.496094 5.605469 C 28.496094 5.652344 28.453125 5.695312 28.402344 5.695312 C 28.351562 5.695312 28.3125 5.738281 28.3125 5.789062 C 28.3125 5.839844 28.269531 5.882812 28.21875 5.882812 C 28.167969 5.882812 28.125 5.925781 28.125 5.976562 C 28.125 6.023438 28.082031 6.066406 28.035156 6.066406 C 27.984375 6.066406 27.941406 6.113281 27.941406 6.160156 C 27.941406 6.210938 27.898438 6.253906 27.851562 6.253906 C 27.789062 6.253906 27.757812 6.316406 27.757812 6.441406 C 27.757812 6.5625 27.726562 6.625 27.667969 6.625 C 27.601562 6.625 27.574219 6.699219 27.574219 6.902344 C 27.574219 7.109375 27.550781 7.183594 27.484375 7.183594 C 27.410156 7.183594 27.390625 7.269531 27.390625 7.617188 C 27.390625 7.960938 27.410156 8.050781 27.484375 8.050781 C 27.550781 8.050781 27.574219 8.128906 27.574219 8.378906 C 27.574219 8.664062 27.601562 8.722656 27.757812 8.855469 C 27.855469 8.941406 27.9375 9.058594 27.941406 9.113281 C 27.941406 9.230469 28.152344 9.472656 28.25 9.472656 C 28.285156 9.472656 28.3125 9.515625 28.3125 9.566406 C 28.3125 9.621094 28.367188 9.660156 28.464844 9.660156 C 28.550781 9.660156 28.636719 9.703125 28.652344 9.753906 C 28.679688 9.808594 28.769531 9.84375 28.867188 9.84375 C 28.984375 9.84375 29.046875 9.875 29.046875 9.9375 C 29.046875 10.011719 29.125 10.03125 29.382812 10.03125 C 29.640625 10.03125 29.71875 10.050781 29.71875 10.125 C 29.71875 10.203125 30.578125 10.214844 37.074219 10.214844 C 43.570312 10.214844 44.425781 10.203125 44.425781 10.125 C 44.425781 10.042969 45.015625 10.03125 49.355469 10.03125 C 53.671875 10.03125 54.285156 10.019531 54.316406 9.9375 C 54.335938 9.886719 54.421875 9.84375 54.507812 9.84375 C 54.652344 9.84375 54.660156 9.832031 54.660156 9.410156 C 54.660156 9.066406 54.640625 8.976562 54.570312 8.976562 C 54.507812 8.976562 54.476562 8.917969 54.476562 8.792969 C 54.476562 8.636719 54.453125 8.605469 54.324219 8.605469 C 54.238281 8.605469 54.152344 8.5625 54.132812 8.515625 C 54.101562 8.445312 53.992188 8.421875 53.671875 8.421875 C 53.335938 8.421875 53.25 8.441406 53.25 8.515625 C 53.25 8.59375 51.890625 8.605469 41.394531 8.605469 C 30.898438 8.605469 29.535156 8.59375 29.535156 8.515625 C 29.535156 8.453125 29.476562 8.421875 29.351562 8.421875 C 29.1875 8.421875 29.167969 8.402344 29.167969 8.234375 C 29.167969 8.113281 29.136719 8.050781 29.078125 8.050781 C 29.003906 8.050781 28.984375 7.960938 28.984375 7.640625 C 28.984375 7.300781 29.007812 7.207031 29.125 7.082031 C 29.199219 7.003906 29.320312 6.933594 29.390625 6.933594 C 29.460938 6.933594 29.535156 6.890625 29.5625 6.84375 C 29.589844 6.761719 30.460938 6.75 36.914062 6.75 C 43.359375 6.75 44.238281 6.738281 44.265625 6.65625 C 44.285156 6.605469 44.371094 6.5625 44.457031 6.5625 C 44.542969 6.5625 44.609375 6.53125 44.609375 6.5 C 44.609375 6.464844 44.695312 6.441406 44.792969 6.441406 C 44.917969 6.441406 44.976562 6.410156 44.976562 6.347656 C 44.976562 6.296875 45.019531 6.253906 45.070312 6.253906 C 45.121094 6.253906 45.164062 6.210938 45.164062 6.160156 C 45.164062 6.113281 45.203125 6.066406 45.253906 6.066406 C 45.304688 6.066406 45.347656 6.023438 45.347656 5.976562 C 45.347656 5.925781 45.390625 5.882812 45.4375 5.882812 C 45.5 5.882812 45.53125 5.820312 45.53125 5.695312 C 45.53125 5.574219 45.558594 5.511719 45.621094 5.511719 C 45.683594 5.511719 45.714844 5.449219 45.714844 5.324219 C 45.714844 5.203125 45.746094 5.140625 45.804688 5.140625 C 45.886719 5.140625 45.898438 5.007812 45.898438 4.335938 C 45.898438 3.660156 45.886719 3.53125 45.804688 3.53125 C 45.746094 3.53125 45.714844 3.46875 45.714844 3.34375 C 45.714844 3.21875 45.683594 3.15625 45.621094 3.15625 C 45.558594 3.15625 45.53125 3.097656 45.53125 2.972656 C 45.53125 2.847656 45.5 2.785156 45.4375 2.785156 C 45.390625 2.785156 45.347656 2.742188 45.347656 2.695312 C 45.347656 2.644531 45.304688 2.601562 45.253906 2.601562 C 45.203125 2.601562 45.164062 2.570312 45.164062 2.539062 C 45.164062 2.5 45.101562 2.476562 45.019531 2.476562 C 44.941406 2.476562 44.820312 2.394531 44.734375 2.292969 C 44.648438 2.191406 44.519531 2.113281 44.4375 2.105469 C 44.367188 2.105469 44.285156 2.0625 44.265625 2.011719 C 44.238281 1.933594 43.796875 1.917969 40.835938 1.917969 C 38.378906 1.917969 37.441406 1.9375 37.441406 1.988281 M 37.808594 11.980469 C 37.808594 12.042969 37.746094 12.074219 37.625 12.074219 C 37.527344 12.074219 37.441406 12.105469 37.441406 12.140625 C 37.441406 12.179688 37.277344 12.371094 37.078125 12.574219 C 36.878906 12.773438 36.6875 12.941406 36.652344 12.941406 C 36.613281 12.941406 36.582031 13.023438 36.582031 13.125 C 36.582031 13.25 36.550781 13.3125 36.492188 13.3125 C 36.410156 13.3125 36.398438 13.457031 36.398438 14.210938 C 36.398438 14.964844 36.410156 15.109375 36.492188 15.109375 C 36.550781 15.109375 36.582031 15.171875 36.582031 15.292969 C 36.582031 15.417969 36.613281 15.480469 36.675781 15.480469 C 36.738281 15.480469 36.765625 15.542969 36.765625 15.664062 C 36.765625 15.789062 36.796875 15.851562 36.859375 15.851562 C 36.90625 15.851562 36.949219 15.894531 36.949219 15.945312 C 36.949219 15.992188 36.992188 16.039062 37.042969 16.039062 C 37.09375 16.039062 37.132812 16.082031 37.132812 16.128906 C 37.132812 16.179688 37.175781 16.222656 37.226562 16.222656 C 37.277344 16.222656 37.320312 16.265625 37.320312 16.316406 C 37.320312 16.371094 37.375 16.410156 37.464844 16.410156 C 37.546875 16.410156 37.625 16.453125 37.648438 16.5 C 37.667969 16.5625 37.765625 16.59375 37.929688 16.59375 C 38.109375 16.59375 38.175781 16.621094 38.175781 16.6875 C 38.175781 16.769531 39.550781 16.78125 50.1875 16.78125 C 60.824219 16.78125 62.199219 16.769531 62.199219 16.6875 C 62.199219 16.621094 62.269531 16.59375 62.472656 16.59375 C 62.675781 16.59375 62.75 16.570312 62.75 16.5 C 62.75 16.441406 62.808594 16.410156 62.933594 16.410156 C 63.054688 16.410156 63.117188 16.378906 63.117188 16.316406 C 63.117188 16.253906 63.179688 16.222656 63.300781 16.222656 C 63.421875 16.222656 63.484375 16.191406 63.484375 16.128906 C 63.484375 16.082031 63.527344 16.039062 63.578125 16.039062 C 63.625 16.039062 63.667969 15.992188 63.667969 15.945312 C 63.667969 15.894531 63.710938 15.851562 63.761719 15.851562 C 63.820312 15.851562 63.851562 15.789062 63.851562 15.664062 C 63.851562 15.542969 63.882812 15.480469 63.945312 15.480469 C 63.992188 15.480469 64.035156 15.4375 64.035156 15.386719 C 64.035156 15.335938 64.078125 15.292969 64.128906 15.292969 C 64.195312 15.292969 64.21875 15.21875 64.21875 15.015625 C 64.21875 14.859375 64.25 14.738281 64.28125 14.738281 C 64.316406 14.738281 64.34375 14.488281 64.34375 14.117188 C 64.34375 13.746094 64.316406 13.5 64.28125 13.5 C 64.25 13.5 64.21875 13.429688 64.21875 13.34375 C 64.21875 13.257812 64.175781 13.171875 64.128906 13.152344 C 64.078125 13.125 64.035156 13.046875 64.035156 12.964844 C 64.035156 12.875 64 12.816406 63.945312 12.816406 C 63.894531 12.816406 63.851562 12.773438 63.851562 12.722656 C 63.851562 12.675781 63.808594 12.632812 63.761719 12.632812 C 63.710938 12.632812 63.667969 12.589844 63.667969 12.539062 C 63.667969 12.488281 63.625 12.445312 63.578125 12.445312 C 63.527344 12.445312 63.484375 12.402344 63.484375 12.351562 C 63.484375 12.304688 63.441406 12.261719 63.390625 12.261719 C 63.34375 12.261719 63.300781 12.214844 63.300781 12.167969 C 63.300781 12.105469 63.238281 12.074219 63.117188 12.074219 C 62.996094 12.074219 62.933594 12.042969 62.933594 11.980469 C 62.933594 11.902344 61.5 11.886719 50.371094 11.886719 C 39.242188 11.886719 37.808594 11.902344 37.808594 11.980469 M 62.074219 13.40625 C 62.074219 13.472656 62.148438 13.5 62.351562 13.5 C 62.554688 13.5 62.625 13.523438 62.625 13.589844 C 62.625 13.640625 62.667969 13.683594 62.71875 13.683594 C 62.792969 13.683594 62.808594 13.785156 62.808594 14.1875 C 62.808594 14.621094 62.792969 14.707031 62.675781 14.835938 C 62.597656 14.917969 62.472656 14.984375 62.40625 14.984375 C 62.332031 14.984375 62.257812 15.027344 62.234375 15.078125 C 62.203125 15.15625 60.820312 15.171875 50.277344 15.171875 C 39.726562 15.171875 38.359375 15.15625 38.359375 15.078125 C 38.359375 15.027344 38.316406 14.984375 38.269531 14.984375 C 38.21875 14.984375 38.175781 14.941406 38.175781 14.890625 C 38.175781 14.84375 38.132812 14.796875 38.085938 14.796875 C 38.035156 14.796875 37.992188 14.753906 37.992188 14.707031 C 37.992188 14.65625 37.949219 14.613281 37.902344 14.613281 C 37.828125 14.613281 37.808594 14.53125 37.808594 14.242188 C 37.808594 13.949219 37.828125 13.871094 37.902344 13.871094 C 37.949219 13.871094 37.992188 13.828125 37.992188 13.777344 C 37.992188 13.726562 38.035156 13.683594 38.085938 13.683594 C 38.132812 13.683594 38.175781 13.640625 38.175781 13.589844 C 38.175781 13.511719 39.113281 13.5 46.234375 13.5 C 53.355469 13.5 54.292969 13.484375 54.292969 13.40625 C 54.292969 13.324219 54.765625 13.3125 58.183594 13.3125 C 61.601562 13.3125 62.074219 13.324219 62.074219 13.40625 M 29.230469 18.484375 C 29.230469 18.542969 29.167969 18.574219 29.046875 18.574219 C 28.921875 18.574219 28.863281 18.605469 28.863281 18.667969 C 28.863281 18.730469 28.800781 18.761719 28.679688 18.761719 C 28.554688 18.761719 28.496094 18.792969 28.496094 18.855469 C 28.496094 18.902344 28.453125 18.949219 28.402344 18.949219 C 28.351562 18.949219 28.3125 18.992188 28.3125 19.039062 C 28.3125 19.089844 28.269531 19.132812 28.21875 19.132812 C 28.167969 19.132812 28.125 19.175781 28.125 19.226562 C 28.125 19.277344 28.082031 19.320312 28.035156 19.320312 C 27.984375 19.320312 27.941406 19.363281 27.941406 19.410156 C 27.941406 19.460938 27.898438 19.503906 27.851562 19.503906 C 27.789062 19.503906 27.757812 19.566406 27.757812 19.691406 C 27.757812 19.8125 27.726562 19.875 27.667969 19.875 C 27.585938 19.875 27.574219 20.023438 27.574219 20.835938 C 27.574219 21.632812 27.59375 21.808594 27.667969 21.832031 C 27.714844 21.859375 27.757812 21.9375 27.757812 22.019531 C 27.757812 22.113281 27.796875 22.167969 27.851562 22.167969 C 27.898438 22.167969 27.941406 22.210938 27.941406 22.261719 C 27.941406 22.308594 27.984375 22.351562 28.035156 22.351562 C 28.082031 22.351562 28.125 22.394531 28.125 22.445312 C 28.125 22.496094 28.167969 22.539062 28.21875 22.539062 C 28.269531 22.539062 28.3125 22.582031 28.3125 22.632812 C 28.3125 22.679688 28.351562 22.722656 28.402344 22.722656 C 28.453125 22.722656 28.496094 22.769531 28.496094 22.816406 C 28.496094 22.867188 28.539062 22.910156 28.585938 22.910156 C 28.636719 22.910156 28.679688 22.953125 28.679688 23.003906 C 28.679688 23.066406 28.738281 23.097656 28.863281 23.097656 C 28.984375 23.097656 29.046875 23.125 29.046875 23.1875 C 29.046875 23.269531 30.449219 23.28125 41.332031 23.28125 C 52.214844 23.28125 53.617188 23.269531 53.617188 23.1875 C 53.617188 23.125 53.679688 23.097656 53.800781 23.097656 C 53.925781 23.097656 53.984375 23.066406 53.984375 23.003906 C 53.984375 22.953125 54.042969 22.910156 54.109375 22.910156 C 54.261719 22.910156 54.84375 22.320312 54.84375 22.167969 C 54.84375 22.097656 54.886719 22.042969 54.9375 22.042969 C 54.996094 22.042969 55.027344 21.980469 55.027344 21.859375 C 55.027344 21.734375 55.058594 21.671875 55.121094 21.671875 C 55.199219 21.671875 55.210938 21.542969 55.210938 20.867188 C 55.210938 20.191406 55.199219 20.0625 55.121094 20.0625 C 55.058594 20.0625 55.027344 20 55.027344 19.875 C 55.027344 19.753906 54.996094 19.691406 54.9375 19.691406 C 54.875 19.691406 54.84375 19.628906 54.84375 19.503906 C 54.84375 19.378906 54.8125 19.320312 54.753906 19.320312 C 54.703125 19.320312 54.660156 19.277344 54.660156 19.226562 C 54.660156 19.175781 54.617188 19.132812 54.570312 19.132812 C 54.519531 19.132812 54.476562 19.089844 54.476562 19.039062 C 54.476562 18.992188 54.433594 18.949219 54.382812 18.949219 C 54.335938 18.949219 54.292969 18.902344 54.292969 18.855469 C 54.292969 18.796875 54.238281 18.761719 54.140625 18.761719 C 54.042969 18.761719 53.984375 18.722656 53.984375 18.667969 C 53.984375 18.605469 53.925781 18.574219 53.800781 18.574219 C 53.679688 18.574219 53.617188 18.542969 53.617188 18.484375 C 53.617188 18.402344 52.222656 18.390625 41.425781 18.390625 C 30.625 18.390625 29.230469 18.402344 29.230469 18.484375 M 53.25 20.09375 C 53.25 20.140625 53.292969 20.1875 53.34375 20.1875 C 53.390625 20.1875 53.433594 20.230469 53.433594 20.277344 C 53.433594 20.328125 53.476562 20.371094 53.527344 20.371094 C 53.589844 20.371094 53.617188 20.433594 53.617188 20.558594 C 53.617188 20.679688 53.648438 20.742188 53.710938 20.742188 C 53.757812 20.742188 53.800781 20.785156 53.800781 20.835938 C 53.800781 20.886719 53.757812 20.929688 53.710938 20.929688 C 53.648438 20.929688 53.617188 20.992188 53.617188 21.113281 C 53.617188 21.238281 53.589844 21.300781 53.527344 21.300781 C 53.476562 21.300781 53.433594 21.34375 53.433594 21.394531 C 53.433594 21.441406 53.390625 21.484375 53.34375 21.484375 C 53.292969 21.484375 53.25 21.53125 53.25 21.578125 C 53.25 21.660156 51.882812 21.671875 41.300781 21.671875 C 30.71875 21.671875 29.351562 21.660156 29.351562 21.578125 C 29.351562 21.53125 29.308594 21.484375 29.261719 21.484375 C 29.210938 21.484375 29.167969 21.441406 29.167969 21.394531 C 29.167969 21.34375 29.125 21.300781 29.078125 21.300781 C 29.003906 21.300781 28.984375 21.207031 28.984375 20.835938 C 28.984375 20.464844 29.003906 20.371094 29.078125 20.371094 C 29.125 20.371094 29.167969 20.328125 29.167969 20.277344 C 29.167969 20.230469 29.210938 20.1875 29.261719 20.1875 C 29.308594 20.1875 29.351562 20.140625 29.351562 20.09375 C 29.351562 20.011719 30.71875 20 41.300781 20 C 51.882812 20 53.25 20.011719 53.25 20.09375 M 57.210938 25.046875 C 57.179688 25.125 56.046875 25.140625 47.492188 25.140625 C 38.925781 25.140625 37.808594 25.152344 37.808594 25.230469 C 37.808594 25.292969 37.746094 25.324219 37.625 25.324219 C 37.527344 25.324219 37.441406 25.355469 37.441406 25.394531 C 37.441406 25.480469 37.105469 25.820312 37.019531 25.820312 C 36.980469 25.820312 36.949219 25.863281 36.949219 25.914062 C 36.949219 25.960938 36.90625 26.007812 36.859375 26.007812 C 36.796875 26.007812 36.765625 26.066406 36.765625 26.191406 C 36.765625 26.316406 36.738281 26.378906 36.675781 26.378906 C 36.609375 26.378906 36.582031 26.453125 36.582031 26.65625 C 36.582031 26.859375 36.558594 26.933594 36.492188 26.933594 C 36.417969 26.933594 36.398438 27.035156 36.398438 27.460938 C 36.398438 27.886719 36.417969 27.988281 36.492188 27.988281 C 36.558594 27.988281 36.582031 28.0625 36.582031 28.265625 C 36.582031 28.46875 36.609375 28.542969 36.675781 28.542969 C 36.722656 28.542969 36.765625 28.589844 36.765625 28.636719 C 36.765625 28.6875 36.808594 28.730469 36.859375 28.730469 C 36.921875 28.730469 36.949219 28.792969 36.949219 28.917969 C 36.949219 29.039062 36.980469 29.101562 37.042969 29.101562 C 37.09375 29.101562 37.132812 29.144531 37.132812 29.195312 C 37.132812 29.246094 37.175781 29.289062 37.226562 29.289062 C 37.277344 29.289062 37.320312 29.332031 37.320312 29.378906 C 37.320312 29.4375 37.375 29.472656 37.464844 29.472656 C 37.546875 29.472656 37.625 29.515625 37.648438 29.566406 C 37.667969 29.617188 37.753906 29.660156 37.839844 29.660156 C 37.925781 29.660156 37.992188 29.683594 37.992188 29.722656 C 37.992188 29.753906 38.101562 29.785156 38.238281 29.785156 C 38.402344 29.785156 38.5 29.8125 38.519531 29.875 C 38.550781 29.957031 39.566406 29.96875 47.160156 29.96875 C 54.765625 29.96875 55.761719 29.957031 55.761719 29.875 C 55.761719 29.796875 56.191406 29.785156 59.257812 29.785156 C 61.542969 29.785156 62.75 29.765625 62.75 29.722656 C 62.75 29.683594 62.835938 29.660156 62.933594 29.660156 C 63.054688 29.660156 63.117188 29.628906 63.117188 29.566406 C 63.117188 29.503906 63.179688 29.472656 63.300781 29.472656 C 63.421875 29.472656 63.484375 29.441406 63.484375 29.378906 C 63.484375 29.332031 63.527344 29.289062 63.578125 29.289062 C 63.625 29.289062 63.667969 29.246094 63.667969 29.195312 C 63.667969 29.144531 63.710938 29.101562 63.761719 29.101562 C 63.820312 29.101562 63.851562 29.039062 63.851562 28.917969 C 63.851562 28.792969 63.882812 28.730469 63.945312 28.730469 C 63.992188 28.730469 64.035156 28.6875 64.035156 28.636719 C 64.035156 28.589844 64.078125 28.542969 64.128906 28.542969 C 64.203125 28.542969 64.21875 28.464844 64.21875 28.171875 C 64.21875 27.96875 64.246094 27.800781 64.28125 27.800781 C 64.316406 27.800781 64.34375 27.648438 64.34375 27.460938 C 64.34375 27.277344 64.316406 27.121094 64.28125 27.121094 C 64.25 27.121094 64.21875 26.996094 64.21875 26.84375 C 64.21875 26.636719 64.195312 26.5625 64.128906 26.5625 C 64.066406 26.5625 64.035156 26.5 64.035156 26.378906 C 64.035156 26.253906 64.003906 26.191406 63.945312 26.191406 C 63.890625 26.191406 63.851562 26.136719 63.851562 26.050781 C 63.851562 25.914062 63.664062 25.695312 63.546875 25.695312 C 63.507812 25.695312 63.484375 25.652344 63.484375 25.605469 C 63.484375 25.542969 63.421875 25.511719 63.300781 25.511719 C 63.179688 25.511719 63.117188 25.480469 63.117188 25.417969 C 63.117188 25.355469 63.054688 25.324219 62.933594 25.324219 C 62.808594 25.324219 62.75 25.292969 62.75 25.230469 C 62.75 25.15625 62.667969 25.140625 62.410156 25.140625 C 62.167969 25.140625 62.0625 25.113281 62.039062 25.046875 C 62.007812 24.964844 61.683594 24.953125 59.625 24.953125 C 57.566406 24.953125 57.238281 24.964844 57.210938 25.046875 M 62.257812 26.65625 C 62.257812 26.71875 62.320312 26.75 62.441406 26.75 C 62.566406 26.75 62.625 26.78125 62.625 26.84375 C 62.625 26.890625 62.667969 26.933594 62.71875 26.933594 C 62.792969 26.933594 62.808594 27.035156 62.808594 27.441406 C 62.808594 27.902344 62.792969 27.96875 62.664062 28.09375 C 62.582031 28.171875 62.460938 28.234375 62.386719 28.234375 C 62.3125 28.234375 62.257812 28.261719 62.257812 28.296875 C 62.257812 28.339844 58.292969 28.359375 50.492188 28.359375 C 42.691406 28.359375 38.726562 28.339844 38.726562 28.296875 C 38.726562 28.261719 38.648438 28.234375 38.542969 28.234375 C 38.421875 28.234375 38.359375 28.203125 38.359375 28.140625 C 38.359375 28.082031 38.300781 28.050781 38.175781 28.050781 L 37.992188 28.050781 L 37.992188 27.492188 C 37.992188 27.039062 38.011719 26.933594 38.085938 26.933594 C 38.132812 26.933594 38.175781 26.890625 38.175781 26.84375 C 38.175781 26.78125 38.238281 26.75 38.359375 26.75 C 38.484375 26.75 38.542969 26.71875 38.542969 26.65625 C 38.542969 26.574219 39.90625 26.5625 50.402344 26.5625 C 60.898438 26.5625 62.257812 26.574219 62.257812 26.65625 M 29.230469 31.734375 C 29.230469 31.800781 29.15625 31.828125 28.953125 31.828125 C 28.75 31.828125 28.679688 31.851562 28.679688 31.917969 C 28.679688 31.96875 28.636719 32.011719 28.585938 32.011719 C 28.539062 32.011719 28.496094 32.054688 28.496094 32.105469 C 28.496094 32.167969 28.433594 32.199219 28.3125 32.199219 C 28.144531 32.199219 28.125 32.214844 28.125 32.382812 C 28.125 32.507812 28.097656 32.570312 28.035156 32.570312 C 27.984375 32.570312 27.941406 32.613281 27.941406 32.664062 C 27.941406 32.710938 27.898438 32.753906 27.851562 32.753906 C 27.789062 32.753906 27.757812 32.816406 27.757812 32.941406 C 27.757812 33.066406 27.726562 33.125 27.667969 33.125 C 27.601562 33.125 27.574219 33.195312 27.574219 33.367188 C 27.574219 33.523438 27.542969 33.621094 27.484375 33.648438 C 27.414062 33.671875 27.390625 33.777344 27.390625 34.023438 C 27.390625 34.285156 27.410156 34.367188 27.484375 34.367188 C 27.550781 34.367188 27.574219 34.433594 27.574219 34.613281 C 27.574219 34.78125 27.605469 34.878906 27.667969 34.898438 C 27.714844 34.921875 27.757812 35.003906 27.757812 35.082031 C 27.757812 35.175781 27.796875 35.230469 27.851562 35.230469 C 27.914062 35.230469 27.941406 35.292969 27.941406 35.417969 C 27.941406 35.542969 27.972656 35.605469 28.035156 35.605469 C 28.082031 35.605469 28.125 35.648438 28.125 35.695312 C 28.125 35.746094 28.167969 35.789062 28.21875 35.789062 C 28.269531 35.789062 28.3125 35.832031 28.3125 35.882812 C 28.3125 35.933594 28.351562 35.976562 28.402344 35.976562 C 28.453125 35.976562 28.496094 36.019531 28.496094 36.066406 C 28.496094 36.128906 28.554688 36.160156 28.679688 36.160156 C 28.800781 36.160156 28.863281 36.191406 28.863281 36.253906 C 28.863281 36.316406 28.921875 36.347656 29.046875 36.347656 C 29.167969 36.347656 29.230469 36.378906 29.230469 36.441406 C 29.230469 36.519531 30.613281 36.53125 41.332031 36.53125 C 52.050781 36.53125 53.433594 36.519531 53.433594 36.441406 C 53.433594 36.371094 53.507812 36.347656 53.710938 36.347656 C 53.863281 36.347656 53.984375 36.320312 53.984375 36.285156 C 53.984375 36.179688 54.195312 35.976562 54.304688 35.976562 C 54.445312 35.976562 54.660156 35.757812 54.660156 35.617188 C 54.660156 35.554688 54.738281 35.4375 54.84375 35.355469 C 54.980469 35.238281 55.023438 35.152344 55.027344 34.964844 C 55.027344 34.804688 55.050781 34.738281 55.121094 34.738281 C 55.195312 34.738281 55.210938 34.621094 55.210938 34.03125 C 55.210938 33.460938 55.195312 33.320312 55.121094 33.289062 C 55.070312 33.269531 55.027344 33.1875 55.027344 33.101562 C 55.027344 33.023438 54.984375 32.941406 54.9375 32.917969 C 54.886719 32.898438 54.84375 32.8125 54.84375 32.722656 C 54.84375 32.625 54.808594 32.570312 54.753906 32.570312 C 54.703125 32.570312 54.660156 32.527344 54.660156 32.476562 C 54.660156 32.425781 54.617188 32.382812 54.570312 32.382812 C 54.519531 32.382812 54.476562 32.351562 54.476562 32.320312 C 54.476562 32.214844 54.238281 32.011719 54.109375 32.011719 C 54.042969 32.011719 53.984375 31.96875 53.984375 31.917969 C 53.984375 31.859375 53.925781 31.828125 53.800781 31.828125 C 53.679688 31.828125 53.617188 31.796875 53.617188 31.734375 C 53.617188 31.652344 52.222656 31.640625 41.425781 31.640625 C 30.625 31.640625 29.230469 31.652344 29.230469 31.734375 M 53.433594 33.34375 C 53.433594 33.394531 53.476562 33.4375 53.527344 33.4375 C 53.601562 33.4375 53.617188 33.542969 53.617188 33.992188 C 53.617188 34.445312 53.601562 34.550781 53.527344 34.550781 C 53.476562 34.550781 53.433594 34.59375 53.433594 34.644531 C 53.433594 34.695312 53.390625 34.738281 53.34375 34.738281 C 53.292969 34.738281 53.25 34.78125 53.25 34.828125 C 53.25 34.910156 51.882812 34.921875 41.300781 34.921875 C 30.71875 34.921875 29.351562 34.910156 29.351562 34.828125 C 29.351562 34.78125 29.308594 34.738281 29.261719 34.738281 C 29.210938 34.738281 29.167969 34.695312 29.167969 34.644531 C 29.167969 34.59375 29.125 34.550781 29.078125 34.550781 C 29.003906 34.550781 28.984375 34.457031 28.984375 34.085938 C 28.984375 33.714844 29.003906 33.621094 29.078125 33.621094 C 29.125 33.621094 29.167969 33.578125 29.167969 33.53125 C 29.167969 33.480469 29.210938 33.4375 29.261719 33.4375 C 29.308594 33.4375 29.351562 33.394531 29.351562 33.34375 C 29.351562 33.261719 30.730469 33.25 41.394531 33.25 C 52.054688 33.25 53.433594 33.261719 53.433594 33.34375 M 37.808594 38.296875 C 37.808594 38.359375 37.746094 38.390625 37.625 38.390625 C 37.503906 38.390625 37.441406 38.421875 37.441406 38.484375 C 37.441406 38.539062 37.386719 38.574219 37.289062 38.574219 C 37.203125 38.574219 37.132812 38.601562 37.132812 38.636719 C 37.132812 38.667969 37.09375 38.699219 37.042969 38.699219 C 36.992188 38.699219 36.949219 38.742188 36.949219 38.792969 C 36.949219 38.84375 36.90625 38.886719 36.859375 38.886719 C 36.796875 38.886719 36.765625 38.949219 36.765625 39.070312 C 36.765625 39.195312 36.738281 39.257812 36.675781 39.257812 C 36.613281 39.257812 36.582031 39.320312 36.582031 39.441406 C 36.582031 39.566406 36.550781 39.628906 36.492188 39.628906 C 36.410156 39.628906 36.398438 39.769531 36.398438 40.527344 C 36.398438 41.28125 36.410156 41.425781 36.492188 41.425781 C 36.550781 41.425781 36.582031 41.484375 36.582031 41.609375 C 36.582031 41.734375 36.613281 41.796875 36.675781 41.796875 C 36.722656 41.796875 36.765625 41.839844 36.765625 41.886719 C 36.765625 41.9375 36.808594 41.980469 36.859375 41.980469 C 36.921875 41.980469 36.949219 42.042969 36.949219 42.167969 C 36.949219 42.335938 36.96875 42.351562 37.132812 42.351562 C 37.238281 42.351562 37.320312 42.382812 37.320312 42.421875 C 37.320312 42.539062 37.488281 42.664062 37.648438 42.664062 C 37.746094 42.664062 37.808594 42.699219 37.808594 42.753906 C 37.808594 42.828125 37.886719 42.847656 38.175781 42.847656 C 38.464844 42.847656 38.542969 42.867188 38.542969 42.941406 C 38.542969 43.023438 38.875 43.035156 41.148438 43.035156 C 43.421875 43.035156 43.753906 43.023438 43.753906 42.941406 C 43.753906 42.875 43.832031 42.847656 44.082031 42.847656 C 44.324219 42.847656 44.421875 42.824219 44.453125 42.753906 C 44.46875 42.707031 44.554688 42.664062 44.640625 42.664062 C 44.726562 42.664062 44.792969 42.632812 44.792969 42.601562 C 44.792969 42.5625 44.835938 42.539062 44.886719 42.539062 C 44.933594 42.539062 44.976562 42.496094 44.976562 42.445312 C 44.976562 42.394531 45.019531 42.351562 45.070312 42.351562 C 45.121094 42.351562 45.164062 42.308594 45.164062 42.261719 C 45.164062 42.210938 45.203125 42.167969 45.253906 42.167969 C 45.304688 42.167969 45.347656 42.125 45.347656 42.074219 C 45.347656 42.023438 45.390625 41.980469 45.4375 41.980469 C 45.488281 41.980469 45.53125 41.9375 45.53125 41.886719 C 45.53125 41.839844 45.574219 41.796875 45.621094 41.796875 C 45.683594 41.796875 45.714844 41.734375 45.714844 41.609375 C 45.714844 41.484375 45.746094 41.425781 45.804688 41.425781 C 45.886719 41.425781 45.898438 41.28125 45.898438 40.527344 C 45.898438 39.769531 45.886719 39.628906 45.804688 39.628906 C 45.746094 39.628906 45.714844 39.566406 45.714844 39.441406 C 45.714844 39.320312 45.683594 39.257812 45.621094 39.257812 C 45.574219 39.257812 45.53125 39.214844 45.53125 39.164062 C 45.53125 39.113281 45.488281 39.070312 45.4375 39.070312 C 45.390625 39.070312 45.347656 39.027344 45.347656 38.976562 C 45.347656 38.929688 45.304688 38.886719 45.253906 38.886719 C 45.203125 38.886719 45.164062 38.84375 45.164062 38.792969 C 45.164062 38.742188 45.132812 38.699219 45.09375 38.699219 C 45.050781 38.699219 44.960938 38.632812 44.878906 38.542969 C 44.800781 38.457031 44.683594 38.390625 44.609375 38.390625 C 44.542969 38.390625 44.46875 38.347656 44.453125 38.296875 C 44.421875 38.214844 43.992188 38.203125 41.113281 38.203125 C 38.21875 38.203125 37.808594 38.214844 37.808594 38.296875 M 44.121094 39.90625 C 44.121094 39.957031 44.164062 40 44.210938 40 C 44.285156 40 44.304688 40.097656 44.304688 40.515625 C 44.304688 40.949219 44.285156 41.039062 44.183594 41.132812 C 44.113281 41.1875 44.027344 41.238281 43.996094 41.238281 C 43.960938 41.238281 43.9375 41.28125 43.9375 41.332031 C 43.9375 41.410156 43.597656 41.425781 41.246094 41.425781 C 38.910156 41.425781 38.550781 41.410156 38.519531 41.332031 C 38.5 41.28125 38.414062 41.238281 38.328125 41.238281 C 38.242188 41.238281 38.175781 41.207031 38.175781 41.175781 C 38.175781 41.140625 38.132812 41.113281 38.085938 41.113281 C 38.035156 41.113281 37.992188 41.070312 37.992188 41.023438 C 37.992188 40.972656 37.949219 40.929688 37.902344 40.929688 C 37.746094 40.929688 37.773438 40.242188 37.929688 40.105469 C 38 40.050781 38.085938 40 38.113281 40 C 38.152344 40 38.175781 39.957031 38.175781 39.90625 C 38.175781 39.828125 38.550781 39.8125 41.148438 39.8125 C 43.746094 39.8125 44.121094 39.828125 44.121094 39.90625 M 28.863281 49.320312 C 28.863281 49.394531 28.78125 49.410156 28.496094 49.410156 C 28.207031 49.410156 28.125 49.429688 28.125 49.503906 C 28.125 49.574219 28.054688 49.597656 27.851562 49.597656 C 27.648438 49.597656 27.574219 49.621094 27.574219 49.691406 C 27.574219 49.753906 27.515625 49.785156 27.390625 49.785156 C 27.292969 49.785156 27.207031 49.808594 27.207031 49.84375 C 27.207031 49.960938 26.992188 50.15625 26.859375 50.15625 C 26.773438 50.15625 26.71875 50.191406 26.71875 50.246094 C 26.71875 50.296875 26.675781 50.339844 26.625 50.339844 C 26.578125 50.339844 26.535156 50.382812 26.535156 50.433594 C 26.535156 50.484375 26.492188 50.527344 26.441406 50.527344 C 26.378906 50.527344 26.351562 50.589844 26.351562 50.710938 C 26.351562 50.835938 26.320312 50.898438 26.257812 50.898438 C 26.207031 50.898438 26.164062 50.941406 26.164062 50.992188 C 26.164062 51.039062 26.121094 51.082031 26.074219 51.082031 C 26.019531 51.082031 25.980469 51.140625 25.980469 51.238281 C 25.980469 51.324219 25.9375 51.410156 25.890625 51.429688 C 25.828125 51.457031 25.796875 51.554688 25.796875 51.707031 C 25.796875 51.882812 25.773438 51.949219 25.707031 51.949219 C 25.640625 51.949219 25.613281 52.023438 25.613281 52.230469 C 25.613281 52.433594 25.589844 52.507812 25.523438 52.507812 C 25.441406 52.507812 25.429688 52.71875 25.429688 54.019531 C 25.429688 55.304688 25.441406 55.535156 25.523438 55.566406 C 25.582031 55.585938 25.613281 55.683594 25.613281 55.851562 C 25.613281 56.03125 25.640625 56.097656 25.707031 56.097656 C 25.773438 56.097656 25.796875 56.171875 25.796875 56.378906 C 25.796875 56.582031 25.824219 56.65625 25.890625 56.65625 C 25.9375 56.65625 25.980469 56.699219 25.980469 56.75 C 25.980469 56.796875 26.023438 56.84375 26.074219 56.84375 C 26.136719 56.84375 26.164062 56.902344 26.164062 57.027344 C 26.164062 57.152344 26.195312 57.214844 26.257812 57.214844 C 26.308594 57.214844 26.351562 57.257812 26.351562 57.304688 C 26.351562 57.355469 26.394531 57.398438 26.441406 57.398438 C 26.492188 57.398438 26.535156 57.441406 26.535156 57.492188 C 26.535156 57.542969 26.578125 57.585938 26.625 57.585938 C 26.675781 57.585938 26.71875 57.628906 26.71875 57.679688 C 26.71875 57.726562 26.761719 57.769531 26.808594 57.769531 C 26.859375 57.769531 26.902344 57.8125 26.902344 57.863281 C 26.902344 57.914062 26.945312 57.957031 26.992188 57.957031 C 27.042969 57.957031 27.085938 58 27.085938 58.050781 C 27.085938 58.105469 27.140625 58.140625 27.238281 58.140625 C 27.324219 58.140625 27.390625 58.167969 27.390625 58.203125 C 27.390625 58.234375 27.476562 58.265625 27.574219 58.265625 C 27.699219 58.265625 27.757812 58.296875 27.757812 58.359375 C 27.757812 58.433594 27.839844 58.453125 28.125 58.453125 C 28.414062 58.453125 28.496094 58.46875 28.496094 58.542969 C 28.496094 58.625 28.667969 58.636719 29.660156 58.636719 C 30.652344 58.636719 30.824219 58.625 30.824219 58.542969 C 30.824219 58.476562 30.890625 58.453125 31.0625 58.453125 C 31.214844 58.453125 31.3125 58.421875 31.335938 58.359375 C 31.355469 58.296875 31.453125 58.265625 31.621094 58.265625 C 31.753906 58.265625 31.863281 58.234375 31.863281 58.203125 C 31.863281 58.167969 31.949219 58.140625 32.046875 58.140625 C 32.171875 58.140625 32.234375 58.113281 32.234375 58.050781 C 32.234375 58 32.273438 57.957031 32.324219 57.957031 C 32.375 57.957031 32.417969 57.914062 32.417969 57.863281 C 32.417969 57.800781 32.476562 57.769531 32.601562 57.769531 C 32.722656 57.769531 32.785156 57.738281 32.785156 57.679688 C 32.785156 57.628906 32.828125 57.585938 32.875 57.585938 C 32.925781 57.585938 32.96875 57.542969 32.96875 57.492188 C 32.96875 57.441406 33.011719 57.398438 33.058594 57.398438 C 33.121094 57.398438 33.152344 57.335938 33.152344 57.214844 C 33.152344 57.089844 33.183594 57.027344 33.242188 57.027344 C 33.292969 57.027344 33.335938 56.984375 33.335938 56.933594 C 33.335938 56.886719 33.378906 56.84375 33.425781 56.84375 C 33.488281 56.84375 33.519531 56.78125 33.519531 56.65625 C 33.519531 56.53125 33.550781 56.46875 33.609375 56.46875 C 33.679688 56.46875 33.703125 56.394531 33.703125 56.191406 C 33.703125 56.039062 33.734375 55.914062 33.765625 55.914062 C 33.800781 55.914062 33.824219 55.800781 33.824219 55.664062 C 33.824219 55.484375 33.851562 55.417969 33.917969 55.417969 C 33.996094 55.417969 34.007812 55.214844 34.007812 53.960938 C 34.007812 52.710938 33.996094 52.507812 33.917969 52.507812 C 33.84375 52.507812 33.824219 52.425781 33.824219 52.136719 C 33.824219 51.933594 33.800781 51.765625 33.765625 51.765625 C 33.734375 51.765625 33.703125 51.695312 33.703125 51.609375 C 33.703125 51.511719 33.667969 51.457031 33.609375 51.457031 C 33.550781 51.457031 33.519531 51.394531 33.519531 51.269531 C 33.519531 51.144531 33.488281 51.082031 33.425781 51.082031 C 33.378906 51.082031 33.335938 51.039062 33.335938 50.992188 C 33.335938 50.941406 33.292969 50.898438 33.242188 50.898438 C 33.183594 50.898438 33.152344 50.835938 33.152344 50.710938 C 33.152344 50.589844 33.121094 50.527344 33.058594 50.527344 C 33.011719 50.527344 32.96875 50.484375 32.96875 50.433594 C 32.96875 50.371094 32.90625 50.339844 32.785156 50.339844 C 32.660156 50.339844 32.601562 50.308594 32.601562 50.246094 C 32.601562 50.199219 32.558594 50.15625 32.507812 50.15625 C 32.460938 50.15625 32.417969 50.113281 32.417969 50.0625 C 32.417969 50.011719 32.375 49.96875 32.324219 49.96875 C 32.273438 49.96875 32.234375 49.925781 32.234375 49.875 C 32.234375 49.8125 32.171875 49.785156 32.046875 49.785156 C 31.925781 49.785156 31.863281 49.753906 31.863281 49.691406 C 31.863281 49.621094 31.792969 49.597656 31.589844 49.597656 C 31.386719 49.597656 31.3125 49.574219 31.3125 49.503906 C 31.3125 49.429688 31.234375 49.410156 30.976562 49.410156 C 30.71875 49.410156 30.640625 49.394531 30.640625 49.320312 C 30.640625 49.238281 30.5 49.226562 29.75 49.226562 C 29.003906 49.226562 28.863281 49.238281 28.863281 49.320312 M 29.902344 51.113281 C 29.902344 51.1875 29.984375 51.207031 30.273438 51.207031 C 30.558594 51.207031 30.640625 51.226562 30.640625 51.300781 C 30.640625 51.363281 30.699219 51.394531 30.824219 51.394531 C 30.945312 51.394531 31.007812 51.425781 31.007812 51.484375 C 31.007812 51.535156 31.050781 51.578125 31.097656 51.578125 C 31.148438 51.578125 31.191406 51.621094 31.191406 51.671875 C 31.191406 51.722656 31.234375 51.765625 31.28125 51.765625 C 31.332031 51.765625 31.375 51.808594 31.375 51.859375 C 31.375 51.90625 31.417969 51.949219 31.464844 51.949219 C 31.527344 51.949219 31.558594 52.011719 31.558594 52.136719 C 31.558594 52.261719 31.589844 52.320312 31.648438 52.320312 C 31.71875 52.320312 31.742188 52.394531 31.742188 52.601562 C 31.742188 52.804688 31.765625 52.878906 31.835938 52.878906 C 31.914062 52.878906 31.925781 53.039062 31.925781 53.960938 C 31.925781 54.886719 31.914062 55.046875 31.835938 55.046875 C 31.765625 55.046875 31.742188 55.121094 31.742188 55.324219 C 31.742188 55.53125 31.71875 55.605469 31.648438 55.605469 C 31.589844 55.605469 31.558594 55.664062 31.558594 55.789062 C 31.558594 55.914062 31.527344 55.976562 31.464844 55.976562 C 31.417969 55.976562 31.375 56.019531 31.375 56.066406 C 31.375 56.117188 31.332031 56.160156 31.28125 56.160156 C 31.234375 56.160156 31.191406 56.203125 31.191406 56.253906 C 31.191406 56.304688 31.160156 56.347656 31.128906 56.347656 C 31.09375 56.347656 31 56.414062 30.921875 56.5 C 30.804688 56.625 30.71875 56.65625 30.460938 56.65625 C 30.234375 56.65625 30.136719 56.679688 30.113281 56.75 C 30.058594 56.886719 29.351562 56.886719 29.351562 56.75 C 29.351562 56.679688 29.277344 56.65625 29.078125 56.65625 C 28.921875 56.65625 28.800781 56.625 28.800781 56.59375 C 28.800781 56.558594 28.734375 56.53125 28.648438 56.53125 C 28.550781 56.53125 28.496094 56.496094 28.496094 56.441406 C 28.496094 56.390625 28.453125 56.347656 28.402344 56.347656 C 28.351562 56.347656 28.3125 56.304688 28.3125 56.253906 C 28.3125 56.203125 28.269531 56.160156 28.21875 56.160156 C 28.167969 56.160156 28.125 56.117188 28.125 56.066406 C 28.125 56.019531 28.082031 55.976562 28.035156 55.976562 C 27.972656 55.976562 27.941406 55.914062 27.941406 55.789062 C 27.941406 55.664062 27.914062 55.605469 27.851562 55.605469 C 27.785156 55.605469 27.757812 55.53125 27.757812 55.324219 C 27.757812 55.121094 27.734375 55.046875 27.667969 55.046875 C 27.585938 55.046875 27.574219 54.875 27.574219 53.871094 C 27.574219 52.867188 27.585938 52.695312 27.667969 52.695312 C 27.734375 52.695312 27.757812 52.621094 27.757812 52.414062 C 27.757812 52.210938 27.785156 52.136719 27.851562 52.136719 C 27.898438 52.136719 27.941406 52.09375 27.941406 52.042969 C 27.941406 51.992188 27.984375 51.949219 28.035156 51.949219 C 28.097656 51.949219 28.125 51.886719 28.125 51.765625 C 28.125 51.597656 28.144531 51.578125 28.3125 51.578125 C 28.414062 51.578125 28.496094 51.554688 28.496094 51.515625 C 28.496094 51.484375 28.542969 51.398438 28.597656 51.332031 C 28.679688 51.238281 28.78125 51.207031 29.027344 51.207031 C 29.273438 51.207031 29.351562 51.183594 29.351562 51.113281 C 29.351562 51.046875 29.425781 51.023438 29.628906 51.023438 C 29.832031 51.023438 29.902344 51.046875 29.902344 51.113281 M 6.25 49.503906 C 6.25 49.566406 6.1875 49.597656 6.066406 49.597656 C 5.902344 49.597656 5.882812 49.617188 5.882812 49.785156 C 5.882812 49.90625 5.851562 49.96875 5.789062 49.96875 C 5.742188 49.96875 5.699219 50.011719 5.699219 50.0625 C 5.699219 50.113281 5.742188 50.15625 5.789062 50.15625 C 5.871094 50.15625 5.882812 50.65625 5.882812 54.304688 L 5.882812 58.453125 L 6.128906 58.453125 C 6.292969 58.453125 6.390625 58.484375 6.410156 58.542969 C 6.464844 58.675781 7.109375 58.675781 7.109375 58.542969 C 7.109375 58.46875 7.1875 58.453125 7.476562 58.453125 L 7.84375 58.453125 L 7.84375 54.859375 L 9.527344 54.859375 C 10.988281 54.859375 11.214844 54.847656 11.214844 54.769531 C 11.214844 54.71875 11.257812 54.675781 11.304688 54.675781 C 11.378906 54.675781 11.398438 54.558594 11.398438 53.960938 C 11.398438 53.367188 11.378906 53.25 11.304688 53.25 C 11.257812 53.25 11.214844 53.207031 11.214844 53.15625 C 11.214844 53.078125 10.988281 53.066406 9.527344 53.066406 L 7.84375 53.066406 L 7.84375 51.207031 L 12.132812 51.207031 L 12.132812 50.867188 C 12.132812 50.621094 12.15625 50.515625 12.226562 50.488281 C 12.273438 50.464844 12.316406 50.425781 12.316406 50.394531 C 12.316406 50.367188 12.273438 50.339844 12.226562 50.339844 C 12.175781 50.339844 12.132812 50.296875 12.132812 50.246094 C 12.132812 50.199219 12.175781 50.15625 12.226562 50.15625 C 12.273438 50.15625 12.316406 50.113281 12.316406 50.0625 C 12.316406 50.011719 12.273438 49.96875 12.226562 49.96875 C 12.164062 49.96875 12.132812 49.90625 12.132812 49.785156 C 12.132812 49.660156 12.101562 49.597656 12.042969 49.597656 C 11.992188 49.597656 11.949219 49.554688 11.949219 49.503906 C 11.949219 49.425781 11.59375 49.410156 9.101562 49.410156 C 6.605469 49.410156 6.25 49.425781 6.25 49.503906 M 15.382812 49.503906 C 15.382812 49.554688 15.339844 49.597656 15.289062 49.597656 C 15.238281 49.597656 15.195312 49.640625 15.195312 49.691406 C 15.195312 49.738281 15.152344 49.785156 15.105469 49.785156 C 15.027344 49.785156 15.011719 50.296875 15.011719 54.023438 C 15.011719 57.753906 15.027344 58.265625 15.105469 58.265625 C 15.152344 58.265625 15.195312 58.308594 15.195312 58.359375 C 15.195312 58.425781 15.269531 58.453125 15.472656 58.453125 C 15.675781 58.453125 15.75 58.476562 15.75 58.542969 C 15.75 58.664062 15.847656 58.664062 15.894531 58.542969 C 15.921875 58.46875 16.042969 58.453125 16.421875 58.453125 C 17.195312 58.453125 17.15625 58.550781 17.15625 56.53125 L 17.15625 54.859375 L 17.710938 54.859375 C 18.15625 54.859375 18.261719 54.878906 18.261719 54.953125 C 18.261719 55.003906 18.304688 55.046875 18.351562 55.046875 C 18.402344 55.046875 18.445312 55.089844 18.445312 55.140625 C 18.445312 55.1875 18.488281 55.230469 18.535156 55.230469 C 18.585938 55.230469 18.628906 55.277344 18.628906 55.324219 C 18.628906 55.375 18.660156 55.417969 18.691406 55.417969 C 18.800781 55.417969 19.179688 55.828125 19.179688 55.9375 C 19.179688 55.992188 19.246094 56.105469 19.332031 56.1875 C 19.417969 56.273438 19.488281 56.394531 19.488281 56.496094 C 19.488281 56.59375 19.515625 56.65625 19.578125 56.65625 C 19.628906 56.65625 19.671875 56.699219 19.671875 56.75 C 19.671875 56.796875 19.714844 56.84375 19.761719 56.84375 C 19.824219 56.84375 19.855469 56.902344 19.855469 57.027344 C 19.855469 57.152344 19.886719 57.214844 19.945312 57.214844 C 19.996094 57.214844 20.039062 57.257812 20.039062 57.304688 C 20.039062 57.355469 20.082031 57.398438 20.128906 57.398438 C 20.191406 57.398438 20.222656 57.460938 20.222656 57.585938 C 20.222656 57.707031 20.253906 57.769531 20.3125 57.769531 C 20.363281 57.769531 20.40625 57.8125 20.40625 57.863281 C 20.40625 57.914062 20.449219 57.957031 20.496094 57.957031 C 20.546875 57.957031 20.589844 58 20.589844 58.050781 C 20.589844 58.097656 20.632812 58.140625 20.679688 58.140625 C 20.738281 58.140625 20.773438 58.199219 20.773438 58.296875 C 20.773438 58.421875 20.804688 58.453125 20.925781 58.453125 C 21.011719 58.453125 21.097656 58.496094 21.117188 58.542969 C 21.148438 58.621094 21.300781 58.636719 21.945312 58.636719 C 22.605469 58.636719 22.734375 58.625 22.734375 58.542969 C 22.734375 58.484375 22.796875 58.453125 22.917969 58.453125 C 23.101562 58.453125 23.101562 58.445312 23.101562 58.113281 C 23.101562 57.851562 23.082031 57.769531 23.011719 57.769531 C 22.960938 57.769531 22.917969 57.726562 22.917969 57.679688 C 22.917969 57.628906 22.875 57.585938 22.828125 57.585938 C 22.765625 57.585938 22.734375 57.523438 22.734375 57.398438 C 22.734375 57.277344 22.703125 57.214844 22.640625 57.214844 C 22.582031 57.214844 22.550781 57.152344 22.550781 57.027344 C 22.550781 56.902344 22.519531 56.84375 22.457031 56.84375 C 22.410156 56.84375 22.367188 56.796875 22.367188 56.75 C 22.367188 56.699219 22.34375 56.65625 22.304688 56.65625 C 22.1875 56.65625 22 56.441406 22 56.304688 C 22 56.214844 21.960938 56.160156 21.90625 56.160156 C 21.859375 56.160156 21.816406 56.117188 21.816406 56.066406 C 21.816406 56.019531 21.773438 55.976562 21.722656 55.976562 C 21.660156 55.976562 21.632812 55.914062 21.632812 55.789062 C 21.632812 55.664062 21.601562 55.605469 21.539062 55.605469 C 21.492188 55.605469 21.449219 55.558594 21.449219 55.511719 C 21.449219 55.460938 21.40625 55.417969 21.355469 55.417969 C 21.304688 55.417969 21.261719 55.375 21.261719 55.324219 C 21.261719 55.277344 21.222656 55.230469 21.171875 55.230469 C 21.121094 55.230469 21.078125 55.203125 21.078125 55.171875 C 21.078125 55.132812 21.011719 55.039062 20.925781 54.960938 C 20.839844 54.878906 20.773438 54.785156 20.773438 54.742188 C 20.773438 54.707031 20.730469 54.675781 20.679688 54.675781 C 20.632812 54.675781 20.589844 54.632812 20.589844 54.582031 C 20.589844 54.515625 20.65625 54.488281 20.828125 54.488281 C 20.980469 54.488281 21.078125 54.457031 21.105469 54.394531 C 21.121094 54.347656 21.207031 54.304688 21.292969 54.304688 C 21.390625 54.304688 21.449219 54.265625 21.449219 54.210938 C 21.449219 54.160156 21.492188 54.117188 21.539062 54.117188 C 21.589844 54.117188 21.632812 54.074219 21.632812 54.023438 C 21.632812 53.960938 21.691406 53.933594 21.816406 53.933594 C 21.980469 53.933594 22 53.914062 22 53.746094 C 22 53.621094 22.03125 53.558594 22.089844 53.558594 C 22.140625 53.558594 22.183594 53.515625 22.183594 53.46875 C 22.183594 53.417969 22.226562 53.375 22.273438 53.375 C 22.328125 53.375 22.367188 53.320312 22.367188 53.21875 C 22.367188 53.132812 22.410156 53.046875 22.457031 53.027344 C 22.53125 52.996094 22.550781 52.828125 22.550781 52.039062 C 22.550781 51.230469 22.539062 51.082031 22.457031 51.082031 C 22.398438 51.082031 22.367188 51.023438 22.367188 50.898438 C 22.367188 50.773438 22.335938 50.710938 22.273438 50.710938 C 22.226562 50.710938 22.183594 50.667969 22.183594 50.621094 C 22.183594 50.570312 22.140625 50.527344 22.089844 50.527344 C 22.042969 50.527344 22 50.484375 22 50.433594 C 22 50.382812 21.957031 50.339844 21.90625 50.339844 C 21.859375 50.339844 21.816406 50.296875 21.816406 50.246094 C 21.816406 50.199219 21.773438 50.15625 21.722656 50.15625 C 21.675781 50.15625 21.632812 50.113281 21.632812 50.0625 C 21.632812 50.011719 21.589844 49.96875 21.539062 49.96875 C 21.492188 49.96875 21.449219 49.925781 21.449219 49.875 C 21.449219 49.8125 21.386719 49.785156 21.261719 49.785156 C 21.140625 49.785156 21.078125 49.753906 21.078125 49.691406 C 21.078125 49.617188 21 49.597656 20.742188 49.597656 C 20.484375 49.597656 20.40625 49.578125 20.40625 49.503906 C 20.40625 49.425781 20.085938 49.410156 17.894531 49.410156 C 15.699219 49.410156 15.382812 49.425781 15.382812 49.503906 M 19.855469 51.300781 C 19.855469 51.351562 19.898438 51.394531 19.945312 51.394531 C 19.996094 51.394531 20.039062 51.4375 20.039062 51.484375 C 20.039062 51.535156 20.082031 51.578125 20.128906 51.578125 C 20.179688 51.578125 20.222656 51.621094 20.222656 51.671875 C 20.222656 51.722656 20.265625 51.765625 20.3125 51.765625 C 20.386719 51.765625 20.40625 51.859375 20.40625 52.230469 C 20.40625 52.601562 20.386719 52.695312 20.3125 52.695312 C 20.265625 52.695312 20.222656 52.738281 20.222656 52.785156 C 20.222656 52.835938 20.179688 52.878906 20.128906 52.878906 C 20.082031 52.878906 20.039062 52.921875 20.039062 52.972656 C 20.039062 53.035156 19.976562 53.066406 19.855469 53.066406 C 19.730469 53.066406 19.671875 53.097656 19.671875 53.15625 C 19.671875 53.238281 19.492188 53.25 18.414062 53.25 L 17.15625 53.25 L 17.15625 51.207031 L 18.507812 51.207031 C 19.664062 51.207031 19.855469 51.21875 19.855469 51.300781 M 37.320312 49.503906 C 37.320312 49.554688 37.277344 49.597656 37.226562 49.597656 C 37.148438 49.597656 37.132812 50.117188 37.132812 53.902344 L 37.132812 58.210938 L 37.289062 58.351562 C 37.375 58.433594 37.441406 58.527344 37.441406 58.570312 C 37.441406 58.613281 37.644531 58.636719 38.085938 58.636719 C 38.617188 58.636719 38.726562 58.621094 38.726562 58.542969 C 38.726562 58.476562 38.796875 58.453125 38.972656 58.453125 L 39.21875 58.453125 L 39.21875 56.042969 C 39.21875 54.453125 39.242188 53.617188 39.28125 53.589844 C 39.363281 53.535156 39.648438 53.8125 39.648438 53.949219 C 39.648438 54.011719 39.714844 54.125 39.800781 54.203125 C 39.886719 54.292969 39.953125 54.414062 39.953125 54.515625 C 39.953125 54.613281 39.984375 54.675781 40.046875 54.675781 C 40.09375 54.675781 40.136719 54.71875 40.136719 54.769531 C 40.136719 54.816406 40.179688 54.859375 40.230469 54.859375 C 40.289062 54.859375 40.320312 54.921875 40.320312 55.046875 C 40.320312 55.171875 40.351562 55.230469 40.414062 55.230469 C 40.460938 55.230469 40.503906 55.289062 40.503906 55.355469 C 40.503906 55.484375 40.707031 55.726562 40.8125 55.726562 C 40.847656 55.726562 40.871094 55.808594 40.871094 55.914062 C 40.871094 56.039062 40.902344 56.097656 40.964844 56.097656 C 41.011719 56.097656 41.054688 56.140625 41.054688 56.191406 C 41.054688 56.242188 41.097656 56.285156 41.148438 56.285156 C 41.210938 56.285156 41.242188 56.347656 41.242188 56.46875 C 41.242188 56.59375 41.269531 56.65625 41.332031 56.65625 C 41.394531 56.65625 41.425781 56.71875 41.425781 56.84375 C 41.425781 56.964844 41.453125 57.027344 41.515625 57.027344 C 41.566406 57.027344 41.609375 57.070312 41.609375 57.121094 C 41.609375 57.171875 41.652344 57.214844 41.699219 57.214844 C 41.761719 57.214844 41.792969 57.277344 41.792969 57.398438 C 41.792969 57.523438 41.824219 57.585938 41.882812 57.585938 C 41.933594 57.585938 41.976562 57.628906 41.976562 57.679688 C 41.976562 57.726562 42.019531 57.769531 42.066406 57.769531 C 42.128906 57.769531 42.160156 57.832031 42.160156 57.957031 C 42.160156 58.054688 42.191406 58.140625 42.226562 58.140625 C 42.3125 58.140625 42.464844 58.296875 42.464844 58.382812 C 42.464844 58.425781 42.816406 58.453125 43.539062 58.453125 L 44.609375 58.453125 L 44.609375 49.597656 L 44.425781 49.597656 C 44.304688 49.597656 44.242188 49.566406 44.242188 49.503906 C 44.242188 49.429688 44.125 49.410156 43.539062 49.410156 C 42.949219 49.410156 42.832031 49.429688 42.832031 49.503906 C 42.832031 49.554688 42.789062 49.597656 42.742188 49.597656 C 42.660156 49.597656 42.648438 49.917969 42.648438 52.136719 C 42.648438 54.351562 42.636719 54.675781 42.558594 54.675781 C 42.507812 54.675781 42.464844 54.632812 42.464844 54.582031 C 42.464844 54.53125 42.421875 54.488281 42.375 54.488281 C 42.3125 54.488281 42.28125 54.425781 42.28125 54.304688 C 42.28125 54.199219 42.257812 54.117188 42.222656 54.117188 C 42.105469 54.117188 41.914062 53.902344 41.914062 53.769531 C 41.914062 53.695312 41.871094 53.621094 41.824219 53.597656 C 41.773438 53.578125 41.730469 53.5 41.730469 53.425781 C 41.722656 53.34375 41.644531 53.214844 41.546875 53.125 C 41.441406 53.039062 41.363281 52.917969 41.363281 52.835938 C 41.363281 52.753906 41.339844 52.695312 41.300781 52.695312 C 41.269531 52.695312 41.242188 52.648438 41.242188 52.601562 C 41.242188 52.550781 41.199219 52.507812 41.148438 52.507812 C 41.085938 52.507812 41.054688 52.445312 41.054688 52.320312 C 41.054688 52.199219 41.027344 52.136719 40.964844 52.136719 C 40.902344 52.136719 40.871094 52.074219 40.871094 51.949219 C 40.871094 51.828125 40.84375 51.765625 40.78125 51.765625 C 40.730469 51.765625 40.6875 51.722656 40.6875 51.671875 C 40.6875 51.621094 40.644531 51.578125 40.597656 51.578125 C 40.542969 51.578125 40.503906 51.523438 40.503906 51.425781 C 40.503906 51.324219 40.46875 51.269531 40.414062 51.269531 C 40.363281 51.269531 40.320312 51.226562 40.320312 51.175781 C 40.320312 51.125 40.277344 51.082031 40.230469 51.082031 C 40.167969 51.082031 40.136719 51.023438 40.136719 50.898438 C 40.136719 50.773438 40.105469 50.710938 40.046875 50.710938 C 39.984375 50.710938 39.953125 50.648438 39.953125 50.527344 C 39.953125 50.402344 39.921875 50.339844 39.863281 50.339844 C 39.8125 50.339844 39.769531 50.296875 39.769531 50.246094 C 39.769531 50.199219 39.726562 50.15625 39.679688 50.15625 C 39.617188 50.15625 39.585938 50.09375 39.585938 49.96875 C 39.585938 49.84375 39.554688 49.785156 39.492188 49.785156 C 39.445312 49.785156 39.402344 49.738281 39.402344 49.691406 C 39.402344 49.640625 39.359375 49.597656 39.308594 49.597656 C 39.261719 49.597656 39.21875 49.554688 39.21875 49.503906 C 39.21875 49.425781 39.070312 49.410156 38.269531 49.410156 C 37.464844 49.410156 37.320312 49.425781 37.320312 49.503906 M 47.65625 49.535156 C 47.601562 49.605469 47.550781 49.714844 47.550781 49.785156 C 47.550781 49.859375 47.507812 49.925781 47.460938 49.945312 C 47.398438 49.96875 47.367188 50.066406 47.367188 50.214844 C 47.367188 50.367188 47.398438 50.464844 47.460938 50.488281 C 47.527344 50.515625 47.550781 50.621094 47.550781 50.867188 C 47.550781 51.1875 47.558594 51.207031 47.707031 51.207031 C 47.796875 51.207031 47.859375 51.246094 47.859375 51.300781 C 47.859375 51.375 48.035156 51.394531 48.949219 51.40625 L 50.035156 51.425781 L 50.050781 54.84375 C 50.058594 57.050781 50.089844 58.265625 50.125 58.265625 C 50.164062 58.265625 50.1875 58.308594 50.1875 58.359375 C 50.1875 58.441406 50.320312 58.453125 51.042969 58.453125 C 51.824219 58.453125 51.914062 58.441406 52.023438 58.328125 C 52.148438 58.203125 52.148438 58.125 52.148438 54.796875 L 52.148438 51.394531 L 54.410156 51.394531 L 54.628906 51.175781 L 54.84375 50.953125 L 54.84375 50.371094 C 54.84375 49.886719 54.824219 49.785156 54.753906 49.785156 C 54.691406 49.785156 54.660156 49.722656 54.660156 49.597656 L 54.660156 49.410156 L 51.210938 49.410156 C 47.832031 49.410156 47.761719 49.410156 47.65625 49.535156 M 57.707031 49.535156 C 57.652344 49.605469 57.601562 49.691406 57.601562 49.722656 C 57.601562 49.757812 57.558594 49.785156 57.507812 49.785156 C 57.429688 49.785156 57.417969 50.292969 57.417969 53.960938 C 57.417969 56.890625 57.4375 58.140625 57.484375 58.140625 C 57.570312 58.140625 57.722656 58.296875 57.722656 58.382812 C 57.722656 58.433594 58.703125 58.453125 60.972656 58.453125 C 63.816406 58.453125 64.21875 58.441406 64.21875 58.359375 C 64.21875 58.308594 64.25 58.265625 64.28125 58.265625 C 64.316406 58.265625 64.34375 58.019531 64.34375 57.648438 C 64.34375 57.304688 64.316406 57.027344 64.289062 57.027344 C 64.257812 57.027344 64.21875 56.953125 64.207031 56.855469 L 64.1875 56.6875 L 61.847656 56.667969 L 59.5 56.65625 L 59.5 54.675781 L 63.667969 54.675781 L 63.667969 53.066406 L 63.484375 53.066406 C 63.363281 53.066406 63.300781 53.035156 63.300781 52.972656 C 63.300781 52.890625 63.050781 52.878906 61.402344 52.878906 L 59.496094 52.878906 L 59.511719 52.054688 L 59.53125 51.238281 L 61.878906 51.21875 L 64.21875 51.207031 L 64.21875 50.402344 C 64.21875 49.726562 64.207031 49.597656 64.128906 49.597656 C 64.078125 49.597656 64.035156 49.554688 64.035156 49.503906 C 64.035156 49.425781 63.648438 49.410156 60.921875 49.410156 C 57.882812 49.410156 57.808594 49.410156 57.707031 49.535156 M 67.835938 49.503906 C 67.835938 49.554688 67.792969 49.597656 67.742188 49.597656 C 67.695312 49.597656 67.652344 49.640625 67.652344 49.691406 C 67.652344 49.738281 67.609375 49.785156 67.558594 49.785156 C 67.480469 49.785156 67.46875 50.292969 67.46875 53.960938 C 67.46875 57.632812 67.480469 58.140625 67.558594 58.140625 C 67.613281 58.140625 67.652344 58.199219 67.652344 58.296875 C 67.652344 58.421875 67.683594 58.453125 67.804688 58.453125 C 67.902344 58.453125 67.957031 58.488281 67.957031 58.542969 C 67.957031 58.621094 68.050781 58.636719 68.417969 58.636719 C 68.785156 58.636719 68.875 58.621094 68.875 58.542969 C 68.875 58.476562 68.949219 58.453125 69.152344 58.453125 C 69.402344 58.453125 69.429688 58.441406 69.429688 58.296875 C 69.429688 58.210938 69.453125 58.140625 69.488281 58.140625 C 69.527344 58.140625 69.558594 57.3125 69.5625 55.871094 C 69.582031 53.757812 69.585938 53.589844 69.691406 53.574219 C 69.773438 53.554688 69.796875 53.589844 69.796875 53.738281 C 69.796875 53.871094 69.828125 53.933594 69.886719 53.933594 C 69.9375 53.933594 69.980469 53.976562 69.980469 54.023438 C 69.980469 54.074219 70.023438 54.117188 70.070312 54.117188 C 70.132812 54.117188 70.164062 54.179688 70.164062 54.304688 C 70.164062 54.425781 70.195312 54.488281 70.253906 54.488281 C 70.304688 54.488281 70.347656 54.527344 70.347656 54.574219 C 70.347656 54.625 70.390625 54.675781 70.441406 54.699219 C 70.488281 54.71875 70.53125 54.792969 70.53125 54.867188 C 70.53125 54.941406 70.597656 55.066406 70.683594 55.144531 C 70.769531 55.226562 70.835938 55.34375 70.835938 55.417969 C 70.835938 55.484375 70.878906 55.542969 70.929688 55.542969 C 70.992188 55.542969 71.023438 55.605469 71.023438 55.726562 C 71.023438 55.851562 71.050781 55.914062 71.113281 55.914062 C 71.164062 55.914062 71.207031 55.957031 71.207031 56.007812 C 71.207031 56.054688 71.25 56.097656 71.296875 56.097656 C 71.359375 56.097656 71.390625 56.160156 71.390625 56.285156 C 71.390625 56.410156 71.421875 56.46875 71.480469 56.46875 C 71.542969 56.46875 71.574219 56.53125 71.574219 56.65625 C 71.574219 56.78125 71.605469 56.84375 71.664062 56.84375 C 71.714844 56.84375 71.757812 56.886719 71.757812 56.933594 C 71.757812 56.984375 71.800781 57.027344 71.847656 57.027344 C 71.910156 57.027344 71.941406 57.089844 71.941406 57.214844 C 71.941406 57.335938 71.972656 57.398438 72.03125 57.398438 C 72.09375 57.398438 72.125 57.460938 72.125 57.585938 C 72.125 57.707031 72.15625 57.769531 72.214844 57.769531 C 72.265625 57.769531 72.308594 57.8125 72.308594 57.863281 C 72.308594 57.914062 72.351562 57.957031 72.402344 57.957031 C 72.449219 57.957031 72.492188 58 72.492188 58.050781 C 72.492188 58.097656 72.523438 58.140625 72.558594 58.140625 C 72.601562 58.140625 72.695312 58.210938 72.773438 58.296875 C 72.914062 58.445312 72.933594 58.453125 73.808594 58.453125 C 74.617188 58.453125 74.710938 58.441406 74.820312 58.328125 C 74.945312 58.203125 74.945312 58.125 74.945312 53.992188 C 74.945312 50.292969 74.929688 49.785156 74.851562 49.785156 C 74.800781 49.785156 74.757812 49.738281 74.757812 49.691406 C 74.757812 49.640625 74.714844 49.597656 74.667969 49.597656 C 74.617188 49.597656 74.574219 49.554688 74.574219 49.503906 C 74.574219 49.429688 74.460938 49.410156 73.914062 49.410156 C 73.332031 49.410156 73.238281 49.425781 73.148438 49.535156 C 73.09375 49.605469 73.042969 49.691406 73.042969 49.722656 C 73.042969 49.757812 73 49.785156 72.953125 49.785156 C 72.871094 49.785156 72.859375 50.085938 72.859375 52.136719 C 72.859375 54.445312 72.859375 54.488281 72.738281 54.488281 C 72.640625 54.488281 72.613281 54.445312 72.613281 54.304688 C 72.613281 54.199219 72.589844 54.117188 72.554688 54.117188 C 72.441406 54.117188 72.246094 53.90625 72.246094 53.789062 C 72.246094 53.726562 72.179688 53.617188 72.09375 53.535156 C 72.007812 53.449219 71.941406 53.324219 71.941406 53.226562 C 71.941406 53.125 71.910156 53.066406 71.847656 53.066406 C 71.800781 53.066406 71.757812 53.023438 71.757812 52.972656 C 71.757812 52.921875 71.714844 52.878906 71.664062 52.878906 C 71.605469 52.878906 71.574219 52.816406 71.574219 52.695312 C 71.574219 52.570312 71.542969 52.507812 71.480469 52.507812 C 71.421875 52.507812 71.390625 52.445312 71.390625 52.320312 C 71.390625 52.199219 71.359375 52.136719 71.296875 52.136719 C 71.25 52.136719 71.207031 52.09375 71.207031 52.042969 C 71.207031 51.992188 71.164062 51.949219 71.113281 51.949219 C 71.050781 51.949219 71.023438 51.886719 71.023438 51.765625 C 71.023438 51.660156 70.996094 51.578125 70.960938 51.578125 C 70.84375 51.578125 70.652344 51.363281 70.652344 51.226562 C 70.652344 51.140625 70.617188 51.082031 70.5625 51.082031 C 70.5 51.082031 70.46875 51.023438 70.46875 50.898438 C 70.46875 50.773438 70.441406 50.710938 70.378906 50.710938 C 70.328125 50.710938 70.285156 50.667969 70.285156 50.621094 C 70.285156 50.570312 70.242188 50.527344 70.195312 50.527344 C 70.132812 50.527344 70.101562 50.464844 70.101562 50.339844 C 70.101562 50.214844 70.070312 50.15625 70.011719 50.15625 C 69.960938 50.15625 69.917969 50.113281 69.917969 50.0625 C 69.917969 50.011719 69.875 49.96875 69.828125 49.96875 C 69.765625 49.96875 69.734375 49.90625 69.734375 49.785156 C 69.734375 49.660156 69.703125 49.597656 69.644531 49.597656 C 69.59375 49.597656 69.550781 49.554688 69.550781 49.503906 C 69.550781 49.425781 69.417969 49.410156 68.691406 49.410156 C 67.96875 49.410156 67.835938 49.425781 67.835938 49.503906 M 78.742188 49.503906 C 78.742188 49.554688 78.699219 49.597656 78.652344 49.597656 C 78.582031 49.597656 78.558594 49.671875 78.558594 49.875 C 78.558594 50.082031 78.535156 50.15625 78.46875 50.15625 C 78.386719 50.15625 78.375 50.542969 78.375 53.3125 C 78.375 56.082031 78.386719 56.46875 78.46875 56.46875 C 78.546875 56.46875 78.558594 56.621094 78.558594 57.460938 L 78.558594 58.453125 L 80.972656 58.453125 C 83.0625 58.453125 83.394531 58.441406 83.425781 58.359375 C 83.441406 58.296875 83.539062 58.265625 83.707031 58.265625 C 83.839844 58.265625 83.953125 58.234375 83.953125 58.203125 C 83.953125 58.167969 84.011719 58.140625 84.09375 58.140625 C 84.171875 58.140625 84.292969 58.0625 84.378906 57.957031 C 84.464844 57.859375 84.59375 57.777344 84.675781 57.769531 C 84.753906 57.769531 84.808594 57.734375 84.808594 57.679688 C 84.808594 57.628906 84.851562 57.585938 84.902344 57.585938 C 84.960938 57.585938 84.992188 57.523438 84.992188 57.398438 C 84.992188 57.277344 85.023438 57.214844 85.085938 57.214844 C 85.132812 57.214844 85.175781 57.171875 85.175781 57.121094 C 85.175781 57.070312 85.21875 57.027344 85.269531 57.027344 C 85.332031 57.027344 85.359375 56.964844 85.359375 56.84375 C 85.359375 56.71875 85.390625 56.65625 85.453125 56.65625 C 85.519531 56.65625 85.542969 56.582031 85.542969 56.378906 C 85.542969 56.171875 85.570312 56.097656 85.636719 56.097656 C 85.703125 56.097656 85.726562 56.03125 85.726562 55.851562 C 85.726562 55.683594 85.757812 55.585938 85.820312 55.566406 C 85.898438 55.535156 85.914062 55.292969 85.914062 53.925781 C 85.914062 52.539062 85.898438 52.320312 85.820312 52.320312 C 85.746094 52.320312 85.726562 52.242188 85.726562 51.949219 C 85.726562 51.660156 85.710938 51.578125 85.636719 51.578125 C 85.582031 51.578125 85.542969 51.523438 85.542969 51.429688 C 85.542969 51.351562 85.5 51.269531 85.453125 51.246094 C 85.402344 51.226562 85.359375 51.15625 85.359375 51.089844 C 85.359375 51.015625 85.207031 50.8125 85.023438 50.625 C 84.839844 50.445312 84.6875 50.261719 84.6875 50.222656 C 84.6875 50.1875 84.644531 50.15625 84.59375 50.15625 C 84.546875 50.15625 84.503906 50.113281 84.503906 50.0625 C 84.503906 50.011719 84.460938 49.96875 84.410156 49.96875 C 84.363281 49.96875 84.320312 49.925781 84.320312 49.875 C 84.320312 49.808594 84.246094 49.785156 84.042969 49.785156 C 83.839844 49.785156 83.765625 49.757812 83.765625 49.691406 C 83.765625 49.621094 83.695312 49.597656 83.492188 49.597656 C 83.289062 49.597656 83.214844 49.574219 83.214844 49.503906 C 83.214844 49.425781 82.929688 49.410156 80.980469 49.410156 C 79.03125 49.410156 78.742188 49.425781 78.742188 49.503906 M 82.359375 51.300781 C 82.359375 51.367188 82.433594 51.394531 82.632812 51.394531 C 82.835938 51.394531 82.910156 51.417969 82.910156 51.484375 C 82.910156 51.542969 82.964844 51.578125 83.050781 51.578125 C 83.222656 51.578125 83.398438 51.785156 83.398438 51.980469 C 83.398438 52.082031 83.4375 52.136719 83.492188 52.136719 C 83.558594 52.136719 83.582031 52.203125 83.582031 52.382812 C 83.582031 52.550781 83.613281 52.648438 83.675781 52.667969 C 83.753906 52.699219 83.765625 52.890625 83.765625 53.875 C 83.765625 54.875 83.753906 55.046875 83.675781 55.046875 C 83.601562 55.046875 83.582031 55.125 83.582031 55.417969 C 83.582031 55.707031 83.566406 55.789062 83.492188 55.789062 C 83.4375 55.789062 83.398438 55.84375 83.398438 55.945312 C 83.398438 56.140625 83.039062 56.53125 82.855469 56.53125 C 82.785156 56.53125 82.726562 56.558594 82.726562 56.59375 C 82.726562 56.632812 82.316406 56.65625 81.621094 56.65625 L 80.519531 56.65625 L 80.519531 54.023438 C 80.519531 51.726562 80.53125 51.394531 80.613281 51.394531 C 80.660156 51.394531 80.703125 51.351562 80.703125 51.300781 C 80.703125 51.21875 80.839844 51.207031 81.53125 51.207031 C 82.222656 51.207031 82.359375 51.21875 82.359375 51.300781 "/>
</g>
</svg>
