<?xml version="1.0" standalone="no"?>
<!DOCTYPE svg PUBLIC "-//W3C//DTD SVG 20010904//EN"
 "http://www.w3.org/TR/2001/REC-SVG-20010904/DTD/svg10.dtd">
<svg version="1.0" xmlns="http://www.w3.org/2000/svg"
 width="700.000000pt" height="609.000000pt" viewBox="0 0 700.000000 609.000000"
 preserveAspectRatio="xMidYMid meet">

<g transform="translate(0.000000,609.000000) scale(0.100000,-0.100000)"
fill="#000000" stroke="none">
<path d="M2793 5693 c-29 -33 -28 -51 2 -85 l24 -28 264 0 c243 0 265 -1 280
-18 22 -25 21 -75 -1 -95 -17 -15 -74 -17 -620 -17 -330 0 -603 -4 -606 -9 -3
-4 -19 -11 -35 -14 -33 -7 -51 -22 -96 -82 -27 -35 -30 -45 -29 -111 1 -39 6
-78 13 -85 6 -8 20 -26 31 -41 23 -31 104 -72 125 -64 8 3 17 1 20 -4 6 -11
1217 -15 1227 -5 3 3 184 6 403 5 445 -1 455 1 455 57 0 18 -4 33 -10 33 -5 0
-10 5 -10 11 0 30 -80 54 -95 29 -4 -7 -346 -10 -994 -10 l-988 0 -27 27 c-36
35 -34 91 4 110 19 10 163 13 626 13 571 0 602 1 640 19 47 23 84 56 84 76 0
7 5 15 11 17 13 4 29 158 17 158 -5 0 -8 7 -8 15 0 8 -4 15 -9 15 -5 0 -11 10
-15 23 -3 13 -16 29 -28 35 -13 7 -36 21 -53 31 -28 18 -51 20 -305 20 l-275
0 -22 -26z"/>
<path d="M2779 4831 l-59 -59 0 -64 c0 -88 31 -151 95 -193 29 -19 53 -20 815
-25 432 -3 895 -3 1030 1 226 5 248 7 284 27 48 26 77 52 71 63 -3 4 4 14 16
23 13 9 19 21 16 30 -4 9 -2 16 3 16 6 0 10 25 10 55 0 30 -5 55 -10 55 -6 0
-9 3 -8 8 5 24 -24 61 -79 100 l-31 22 -1047 0 -1047 0 -59 -59z m2134 -83
c10 -10 17 -32 17 -55 0 -32 -5 -41 -31 -55 -29 -17 -96 -18 -1017 -18 l-987
0 -28 25 c-32 31 -36 73 -7 98 18 15 74 17 693 20 1256 5 1341 4 1360 -15z"/>
<path d="M2108 4343 c-10 -2 -18 -9 -18 -14 0 -5 -5 -9 -10 -9 -16 0 -80 -61
-80 -77 0 -7 -4 -13 -10 -13 -6 0 -10 -33 -10 -80 0 -47 4 -80 10 -80 6 0 10
-6 10 -13 0 -7 20 -33 45 -57 l46 -45 1046 0 c828 0 1047 3 1051 13 2 6 9 12
16 12 15 0 56 42 56 57 0 6 5 13 12 15 8 3 14 33 16 81 4 66 1 81 -19 114 -25
43 -54 73 -68 73 -5 0 -11 6 -13 13 -4 9 -220 12 -1034 13 -566 1 -1037 0
-1046 -3z m2032 -140 c11 -10 20 -23 20 -29 0 -7 6 -15 13 -18 10 -5 10 -7 0
-12 -7 -3 -13 -11 -13 -17 0 -6 -7 -19 -17 -29 -15 -17 -60 -18 -1012 -18
-986 0 -997 0 -1014 20 -22 26 -22 75 1 99 17 19 45 19 1009 20 926 1 994 0
1013 -16z"/>
<path d="M4460 3800 c0 -6 -291 -11 -819 -12 l-820 -3 -35 -34 c-21 -20 -38
-49 -42 -68 -3 -18 -10 -36 -15 -39 -5 -3 -9 -21 -9 -40 0 -31 6 -48 32 -94 4
-8 12 -24 17 -36 10 -24 81 -64 111 -64 11 0 20 -4 20 -10 0 -7 247 -10 720
-10 473 0 720 3 720 10 0 6 101 10 284 10 157 0 295 4 308 9 13 5 26 9 31 10
11 1 49 38 45 44 -1 3 8 17 21 31 21 22 25 37 25 91 1 40 -4 69 -11 73 -6 4
-14 19 -18 33 -6 23 -55 79 -55 63 0 -3 -10 2 -22 10 -12 9 -35 16 -50 16 -15
0 -30 5 -33 10 -8 13 -405 14 -405 0z m441 -141 c26 -18 30 -26 27 -63 -2 -31
-8 -43 -25 -51 -13 -5 -23 -13 -23 -17 0 -5 -438 -8 -973 -8 -961 0 -974 0
-1016 20 -41 20 -42 22 -39 63 2 32 8 44 26 52 12 5 22 13 22 17 0 5 444 8
986 8 l986 0 29 -21z"/>
<path d="M2103 3243 c-12 -2 -27 -11 -33 -19 -7 -8 -18 -14 -25 -14 -7 0 -15
-8 -19 -17 -7 -23 -28 -56 -41 -65 -5 -4 -10 -34 -10 -68 0 -34 5 -64 10 -68
6 -4 19 -23 29 -42 25 -46 48 -68 80 -76 14 -3 26 -10 26 -15 0 -14 2005 -12
2033 3 12 6 29 15 37 20 8 4 25 12 38 18 12 5 22 15 22 21 0 7 8 21 18 32 13
15 17 37 17 105 0 59 -4 87 -12 89 -7 3 -13 10 -13 17 0 15 -42 56 -57 56 -6
0 -13 6 -15 13 -4 9 -220 12 -1034 13 -566 1 -1039 -1 -1051 -3z m2055 -177
c3 -38 -1 -52 -17 -67 -19 -18 -55 -19 -1008 -19 -952 1 -989 1 -1010 19 -28
23 -31 76 -6 103 16 17 58 18 1027 16 l1011 -3 3 -49z"/>
<path d="M2830 2703 c-8 -3 -17 -9 -20 -12 -3 -3 -14 -11 -25 -17 -37 -20 -63
-83 -64 -156 -1 -37 4 -70 9 -73 6 -4 8 -10 6 -14 -3 -4 4 -14 15 -21 10 -8
19 -19 19 -25 1 -18 51 -47 91 -52 21 -3 39 -10 39 -14 0 -12 427 -12 434 0 3
4 22 11 43 14 38 7 123 78 123 104 0 7 3 13 8 13 4 0 7 32 7 70 0 39 -3 70 -7
70 -5 0 -8 6 -8 13 0 7 -20 33 -45 57 l-46 45 -282 2 c-155 1 -289 -1 -297 -4z
m544 -139 c13 -34 6 -90 -14 -107 -18 -15 -47 -17 -240 -17 -140 0 -220 4
-220 10 0 6 -5 10 -12 10 -41 0 -62 68 -31 102 15 16 37 18 263 18 217 0 249
-2 254 -16z"/>
<path d="M2090 1791 c0 -4 -19 -11 -43 -14 -42 -6 -94 -27 -106 -44 -3 -4 -15
-13 -26 -19 -11 -6 -26 -23 -33 -37 -7 -15 -17 -27 -22 -27 -5 0 -12 -15 -15
-32 -4 -18 -12 -39 -19 -47 -16 -21 -15 -323 2 -343 7 -9 11 -20 10 -24 -7
-21 98 -138 134 -149 12 -4 26 -13 30 -19 10 -15 270 -15 289 0 8 7 29 15 47
19 17 3 32 10 32 13 0 4 18 18 40 32 23 14 40 32 40 42 0 10 6 21 14 24 8 3
18 20 22 37 3 18 11 38 18 46 14 18 15 329 1 339 -6 4 -16 18 -23 32 -34 67
-45 82 -66 90 -12 4 -28 15 -35 24 -7 9 -20 16 -27 16 -8 0 -14 4 -14 10 0 5
-22 12 -50 16 -27 4 -50 10 -50 15 0 5 -34 9 -75 9 -41 0 -75 -4 -75 -9z m154
-164 c43 -24 76 -62 82 -94 3 -18 10 -36 15 -39 12 -7 11 -171 -1 -179 -5 -3
-10 -15 -10 -26 0 -11 -19 -41 -43 -66 -43 -45 -44 -46 -113 -47 -66 -1 -74 1
-117 34 -33 25 -48 44 -53 68 -3 18 -10 35 -15 38 -13 8 -11 181 3 207 6 12
15 29 20 37 5 8 11 23 14 33 4 9 12 17 19 17 7 0 18 6 25 14 22 27 128 28 174
3z"/>
<path d="M189 1773 c-10 -2 -19 -12 -20 -21 -2 -9 -3 -175 -1 -368 l2 -352 32
-6 c17 -3 53 -3 80 0 l48 7 0 148 0 149 139 0 c107 0 141 3 150 14 7 9 11 38
9 73 l-3 58 -148 3 -148 3 3 77 3 77 178 3 c175 2 177 3 178 25 1 12 3 33 4
47 1 14 -1 35 -6 48 l-9 22 -237 -1 c-131 -1 -245 -3 -254 -6z"/>
<path d="M953 1762 l-23 -19 0 -342 c0 -397 -5 -376 92 -373 34 1 67 7 74 13
11 9 14 45 14 150 l0 139 46 0 c40 0 51 -5 85 -39 22 -21 39 -42 39 -45 0 -6
38 -64 50 -76 7 -7 29 -42 37 -60 4 -8 17 -24 30 -36 13 -12 23 -26 23 -31 0
-23 134 -32 171 -13 23 13 25 55 4 64 -8 3 -15 15 -15 26 0 11 -4 20 -10 20
-5 0 -10 7 -10 15 0 7 -6 18 -12 22 -14 9 -58 68 -58 78 0 4 -20 27 -45 52
-25 24 -45 48 -45 53 0 4 15 11 34 14 19 4 39 13 46 21 7 8 19 15 26 15 8 0
14 5 14 11 0 6 9 22 20 36 16 21 20 41 20 110 l0 84 -46 49 c-26 28 -52 50
-60 50 -7 0 -14 6 -16 13 -4 9 -62 13 -234 15 -216 4 -230 3 -251 -16z m404
-154 c41 -39 43 -75 7 -109 -23 -22 -35 -24 -140 -27 l-114 -4 0 79 c0 44 3
83 7 86 3 4 51 7 107 7 99 0 100 0 133 -32z"/>
<path d="M2793 1773 c-10 -4 -13 -86 -13 -362 0 -344 1 -359 20 -376 16 -14
31 -17 79 -12 33 3 64 8 70 12 7 4 11 76 11 208 l1 202 29 -35 c16 -19 30 -41
30 -47 0 -7 4 -13 10 -13 5 0 12 -11 16 -25 3 -14 10 -25 16 -25 5 0 7 -4 3
-9 -3 -5 3 -16 12 -23 19 -14 34 -36 58 -83 20 -41 34 -63 73 -113 l34 -43 81
3 82 3 3 367 2 367 -33 6 c-18 4 -53 5 -77 3 l-45 -3 -3 -212 c-1 -117 -6
-213 -11 -213 -10 0 -51 54 -69 90 -7 14 -21 39 -32 55 -11 17 -23 38 -26 48
-4 9 -10 17 -15 17 -5 0 -9 7 -9 15 0 7 -6 18 -12 22 -14 9 -30 32 -53 78 -48
97 -60 105 -145 104 -41 0 -81 -3 -87 -6z"/>
<path d="M3664 1772 c-18 -12 -25 -44 -18 -89 4 -27 11 -43 20 -43 8 0 14 -4
14 -10 0 -6 37 -10 90 -10 l90 0 0 -283 c0 -207 3 -286 12 -295 16 -16 140
-16 156 0 9 9 12 88 12 295 l0 283 93 0 c78 0 97 3 110 18 17 19 22 77 11 120
l-6 22 -287 0 c-157 0 -291 -4 -297 -8z"/>
<path d="M4496 1764 c-14 -13 -16 -60 -16 -358 0 -320 1 -344 18 -359 16 -15
51 -17 278 -17 189 0 263 3 272 12 16 16 16 100 0 116 -7 7 -8 13 -2 14 5 1
-81 5 -191 8 l-200 5 -3 83 -3 82 176 0 175 0 0 65 c0 51 -3 65 -15 65 -8 0
-15 5 -15 10 0 6 -60 10 -160 10 l-161 0 3 68 3 67 198 3 197 2 0 58 c0 32 -5
63 -12 70 -9 9 -83 12 -269 12 -221 0 -260 -2 -273 -16z"/>
<path d="M5336 1764 c-14 -13 -16 -60 -16 -360 0 -331 1 -345 20 -364 20 -20
54 -25 107 -14 47 9 54 40 53 234 -1 94 1 174 4 177 3 4 6 -1 6 -10 0 -10 5
-17 10 -17 6 0 15 -10 21 -22 13 -30 29 -56 57 -95 12 -17 22 -36 22 -42 0 -7
6 -14 14 -17 8 -3 18 -19 21 -35 4 -16 11 -29 15 -29 5 0 17 -17 26 -37 10
-21 32 -53 50 -70 31 -31 37 -33 104 -33 49 0 76 5 86 14 12 12 14 73 14 355
0 397 4 381 -92 381 -89 0 -88 2 -88 -226 0 -177 -7 -225 -24 -176 -9 24 -32
63 -43 71 -11 8 -32 42 -39 64 -4 9 -11 17 -16 17 -5 0 -7 4 -3 9 3 5 -5 21
-17 34 -39 43 -47 54 -54 81 -3 14 -10 26 -15 26 -5 0 -14 10 -20 23 -36 78
-34 77 -114 77 -54 0 -78 -4 -89 -16z"/>
<path d="M6257 1774 c-4 -4 -7 -18 -7 -31 0 -12 -4 -23 -10 -23 -6 0 -10 -93
-10 -260 0 -167 4 -260 10 -260 6 0 10 -35 10 -85 l0 -85 200 0 c127 0 200 4
200 10 0 6 11 10 24 10 13 0 35 9 49 20 14 11 28 20 32 20 10 0 35 27 35 38 0
5 6 15 14 21 8 7 18 27 22 44 3 18 12 35 18 39 15 10 15 356 0 366 -6 4 -15
18 -19 31 -11 35 -98 121 -123 121 -11 0 -22 6 -24 13 -4 9 -57 13 -209 15
-112 2 -208 0 -212 -4z m311 -143 c9 -5 30 -14 45 -20 15 -6 30 -19 34 -28 4
-10 11 -21 17 -25 7 -5 11 -57 11 -141 0 -202 -27 -237 -181 -237 l-84 0 0
218 c0 156 3 221 12 230 14 14 120 16 146 3z"/>
</g>
</svg>
