<?xml version="1.0" standalone="no"?>
<!DOCTYPE svg PUBLIC "-//W3C//DTD SVG 20010904//EN"
 "http://www.w3.org/TR/2001/REC-SVG-20010904/DTD/svg10.dtd">
<svg version="1.0" xmlns="http://www.w3.org/2000/svg"
 width="512.000000pt" height="512.000000pt" viewBox="0 0 512.000000 512.000000"
 preserveAspectRatio="xMidYMid meet">

<g transform="translate(0.000000,512.000000) scale(0.100000,-0.100000)"
fill="#000000" stroke="none">
<path d="M22 5097 l-22 -23 0 -915 0 -916 26 -24 26 -24 568 -3 569 -2 3 -170
c3 -169 3 -170 30 -196 18 -18 37 -27 58 -27 28 0 56 24 228 196 l197 197
1042 2 1043 3 27 28 28 27 0 909 0 909 -24 26 -24 26 -1877 0 -1877 0 -21 -23z
m3651 -259 c4 -62 7 -420 7 -795 l0 -683 -1017 0 -1016 0 -144 -142 -143 -142
0 117 c0 112 -1 119 -25 142 l-24 25 -576 0 -575 0 0 563 c0 309 3 667 7 795
l6 232 1747 0 1747 0 6 -112z"/>
<path d="M478 4723 c-2 -4 -2 -259 0 -565 l3 -558 79 0 80 0 0 240 0 240 160
0 160 0 0 -240 0 -240 80 0 80 0 0 560 0 560 -80 0 -80 0 0 -240 0 -240 -161
0 -160 0 2 243 2 242 -81 3 c-44 1 -82 -1 -84 -5z"/>
<path d="M2111 4704 l-31 -26 0 -539 0 -539 80 0 80 0 0 293 1 292 44 -115
c46 -121 69 -150 115 -150 46 0 69 29 115 150 l44 115 1 -292 0 -293 80 0 80
0 2 533 3 532 -31 33 c-18 17 -41 32 -52 32 -26 0 -79 -44 -87 -73 -16 -53
-150 -407 -155 -407 -3 0 -41 96 -84 213 -99 268 -130 304 -205 241z"/>
<path d="M2878 4723 c-2 -4 -1 -225 2 -490 l5 -481 30 -43 c17 -24 50 -57 74
-74 l43 -30 204 -3 204 -3 0 80 0 80 -180 3 c-156 3 -182 5 -197 21 -17 16
-18 51 -20 480 l-2 462 -79 3 c-44 1 -82 -1 -84 -5z"/>
<path d="M1280 4640 l0 -80 120 0 120 0 0 -480 0 -480 80 0 80 0 0 480 0 480
120 0 120 0 0 80 0 80 -320 0 -320 0 0 -80z"/>
<path d="M3995 4237 c-3 -7 -5 -47 -3 -88 l3 -74 245 -5 c245 -5 245 -5 292
-32 67 -40 98 -106 98 -208 l0 -75 -49 -23 c-66 -30 -144 -116 -167 -184 -39
-116 -15 -233 68 -323 29 -32 70 -64 99 -77 45 -21 49 -26 49 -58 0 -60 -45
-136 -98 -168 l-47 -27 -1365 -5 -1365 -5 0 -85 0 -85 1370 0 1370 0 60 24
c45 18 78 42 131 95 77 77 106 135 119 237 7 54 8 55 55 77 65 30 143 117 166
184 23 67 23 149 0 216 -23 67 -101 154 -166 184 l-47 22 -6 90 c-8 135 -34
195 -121 282 -111 111 -133 117 -438 122 -209 3 -249 2 -253 -11z m788 -651
c103 -43 128 -177 48 -257 -112 -113 -296 -12 -267 146 18 94 128 150 219 111z"/>
<path d="M603 2875 c-87 -19 -157 -59 -229 -130 -77 -77 -120 -162 -136 -271
l-12 -81 -47 -21 c-61 -28 -142 -117 -163 -178 -21 -61 -21 -167 0 -228 21
-61 102 -150 163 -178 l47 -21 12 -81 c16 -109 59 -194 136 -272 114 -113 224
-147 461 -142 l130 3 0 85 0 85 -175 5 c-171 5 -176 6 -228 35 -88 48 -141
127 -149 224 l-5 56 50 23 c67 30 145 116 168 184 39 116 15 233 -68 323 -30
33 -70 64 -100 77 l-50 23 5 56 c8 97 61 176 149 224 52 29 57 30 228 35 l175
5 0 85 0 85 -150 2 c-97 1 -172 -3 -212 -12z m-220 -649 c103 -43 128 -177 48
-257 -65 -65 -157 -65 -222 0 -124 123 13 325 174 257z"/>
<path d="M1175 2481 c-11 -5 -29 -19 -40 -31 -20 -22 -20 -36 -20 -1011 l0
-989 28 -27 27 -28 890 -3 889 -2 3 -169 c3 -163 4 -170 27 -195 18 -19 35
-26 60 -26 34 0 50 14 231 195 l194 195 802 2 802 3 26 24 26 24 0 997 0 997
-26 24 -26 24 -1936 2 c-1065 1 -1946 -2 -1957 -6z m3778 -293 c4 -66 7 -460
7 -875 l0 -753 -777 0 -776 0 -144 -142 -143 -142 0 117 c0 112 -1 119 -25
142 l-24 25 -896 0 -895 0 0 648 c0 357 3 751 7 875 l6 227 1827 0 1827 0 6
-122z"/>
<path d="M2080 2159 c-116 -23 -224 -108 -281 -224 l-34 -70 0 -425 0 -425 27
-58 c38 -80 117 -161 197 -200 62 -30 73 -32 171 -32 93 0 111 3 163 27 122
57 221 190 234 311 l6 57 -81 0 -81 0 -7 -37 c-22 -120 -113 -197 -234 -197
-96 0 -167 43 -213 129 -21 39 -22 50 -22 420 l0 381 26 49 c14 27 44 64 67
82 133 101 323 36 368 -127 l17 -60 80 0 80 0 -6 57 c-16 157 -164 312 -327
343 -60 11 -87 11 -150 -1z"/>
<path d="M3048 2161 c-63 -13 -161 -68 -211 -118 -27 -26 -62 -77 -80 -113
-30 -60 -32 -72 -32 -170 0 -99 2 -110 32 -171 40 -80 121 -160 198 -195 35
-16 86 -28 145 -35 128 -13 190 -49 236 -139 25 -50 24 -153 -3 -205 -45 -85
-117 -129 -213 -129 -121 0 -212 77 -234 197 l-7 37 -81 0 -81 0 6 -55 c12
-122 105 -248 226 -308 61 -30 72 -32 171 -32 93 0 111 3 163 27 80 38 160
117 200 197 30 61 32 72 32 171 0 93 -3 111 -27 163 -63 134 -188 221 -339
237 -108 11 -161 32 -205 83 -119 140 -48 350 132 387 78 16 151 -6 208 -64
40 -40 55 -68 70 -138 6 -28 7 -28 88 -28 l81 0 -6 57 c-13 126 -130 277 -251
322 -63 23 -163 34 -218 22z"/>
<path d="M4000 2160 c-118 -25 -224 -110 -281 -225 -32 -66 -34 -75 -34 -175
0 -99 2 -110 32 -171 40 -80 121 -160 198 -195 35 -16 86 -28 145 -35 128 -13
190 -49 236 -139 25 -50 24 -153 -3 -205 -45 -85 -117 -129 -213 -129 -121 0
-212 77 -234 197 l-7 37 -81 0 -81 0 6 -55 c12 -122 105 -248 226 -308 61 -30
72 -32 171 -32 93 0 111 3 163 27 80 38 160 117 200 197 30 61 32 72 32 171 0
93 -3 111 -27 163 -63 135 -186 220 -343 238 -105 11 -163 36 -205 87 -87 105
-67 263 42 342 94 68 221 58 302 -24 40 -40 55 -68 70 -138 6 -28 7 -28 86
-28 l80 0 0 33 c0 93 -75 230 -161 293 -91 66 -215 95 -319 74z"/>
</g>
</svg>
